<?xml version="1.0" encoding="UTF-8"?>
<svg width="1200pt" height="1200pt" version="1.1" viewBox="0 0 1200 1200" xmlns="http://www.w3.org/2000/svg">
 <path fill="#CF4D21" d="m1063.9 663.84c-0.046875-0.09375-0.09375-0.14062-0.14062-0.23438-0.14062-0.375-0.375-0.70312-0.5625-1.0312-0.1875-0.28125-0.32812-0.60938-0.5625-0.84375-0.23438-0.28125-0.5625-0.46875-0.84375-0.65625-0.28125-0.23438-0.5625-0.46875-0.9375-0.60938-0.28125-0.14062-0.65625-0.1875-0.98438-0.28125-0.375-0.09375-0.79688-0.23438-1.1719-0.23438-0.09375 0-0.1875-0.046875-0.28125-0.046875h-158.06l-74.766-242.9c1.3125-1.3594 2.1094-3.1875 2.1094-5.25l-0.1875-88.406c-0.046875-14.719-12.047-26.719-26.719-26.719h-137.48c-0.14062-33.844-14.906-59.297-34.5-59.297s-34.312 25.453-34.5 59.297h-187.22c-0.14063-33.844-14.906-59.297-34.5-59.297s-34.312 25.453-34.5 59.297h-119.67c-14.766 0-26.719 12-26.719 26.719v90.797l-65.531 452.26c-0.70312 4.9219 0.65625 9.7969 3.75 13.406 3.0938 3.5625 7.6406 5.5781 12.516 5.5781h111.47l7.2188 57.984c1.3594 10.734 11.156 19.453 21.938 19.453h591.61c5.4844 0 10.406-2.1562 13.922-6.1406 3.4688-3.9375 5.0625-9.2812 4.4062-14.719l-20.156-161.53h140.16c0.9375 0 1.8281-0.28125 2.5781-0.70313 22.594-2.6719 38.906-10.875 48.328-24.609 17.109-24.844 8.9062-61.781-0.14062-91.219zm-616.08-4.0781c-0.28125 0-0.5625 0.14062-0.84375 0.1875s-0.5625 0-0.84375 0.09375c-0.09375 0.046875-0.14062 0.09375-0.23438 0.14062-0.375 0.14062-0.70312 0.375-1.0312 0.5625-0.28125 0.1875-0.60938 0.32812-0.84375 0.5625-0.28125 0.23438-0.46875 0.5625-0.65625 0.84375-0.23438 0.28125-0.46875 0.5625-0.60938 0.89062s-0.1875 0.65625-0.28125 0.98438c-0.09375 0.375-0.23438 0.75-0.23438 1.1719 0 0.09375-0.046875 0.1875-0.046875 0.28125 0 0.28125 0.14062 0.5625 0.1875 0.84375s0 0.5625 0.09375 0.84375c8.4375 27.328 11.906 64.031-3.6094 84.984-8.1562 11.016-21 16.641-38.203 16.688h-0.28125c-0.046875 0-0.09375 0.046875-0.14062 0.046875h-0.14062c-47.531 2.5312-116.02-129.19-187.87-361.55 0.5625-0.14062 1.125-0.32812 1.7812-0.32812h591.61c3.1875 0 5.1094 1.875 6.3281 3.9375l76.594 248.81zm180.98-302.9c4.7344 0 9.1406-1.5469 13.172-4.2656-1.5469 5.9531-6.7031 10.453-13.172 10.453-6.4219 0-11.578-4.5-13.172-10.453 4.0781 2.7656 8.5312 4.2188 13.172 4.2188zm-7.125-19.219c2.1094-1.3125 4.4531-2.2969 7.125-2.2969 2.7188 0 5.1094 0.98438 7.2188 2.3438-2.3438 2.4375-4.8281 3.8438-7.2188 3.8438-2.2969 0-4.7812-1.4531-7.125-3.9375zm7.125-85.078c9 0 19.078 18.797 19.172 44.016h-38.391c0.14062-25.219 10.172-44.016 19.219-44.016zm-256.18 104.3c4.7344 0 9.1406-1.5469 13.172-4.2656-1.5469 5.9531-6.7031 10.453-13.172 10.453-6.4219 0-11.578-4.5-13.125-10.453 4.0781 2.7656 8.5312 4.2188 13.125 4.2188zm-7.125-19.219c2.1094-1.3125 4.4531-2.2969 7.125-2.2969 2.7188 0 5.1094 0.98438 7.2188 2.3438-2.3438 2.4375-4.8281 3.8438-7.2188 3.8438-2.2969 0-4.7812-1.4531-7.125-3.9375zm7.125-85.078c9 0 19.078 18.797 19.172 44.016h-38.391c0.14063-25.219 10.172-44.016 19.219-44.016zm-154.13 59.25h172.08c-0.75 4.5469-1.8281 8.7188-3.1406 12.422-4.3594-2.5781-9.375-4.1719-14.812-4.1719-9.5156 0-17.859 4.6406-23.203 11.719-0.1875 0.23438-0.42188 0.46875-0.60938 0.70312-3.3281 4.7344-5.3438 10.5-5.3438 16.734 0 16.078 13.078 29.109 29.109 29.109 16.078 0 29.109-13.078 29.109-29.109 0-4.5469-1.125-8.8125-3-12.656 3.4688-6.9375 6-15.281 7.3125-24.75h240.71c-0.75 4.5469-1.8281 8.7188-3.1406 12.422-4.3594-2.5781-9.375-4.1719-14.812-4.1719-9.5156 0-17.859 4.6406-23.203 11.719-0.1875 0.23438-0.42188 0.46875-0.60938 0.70312-3.3281 4.7344-5.3438 10.5-5.3438 16.734 0 16.078 13.078 29.109 29.109 29.109 16.078 0 29.109-13.078 29.109-29.109 0-4.5469-1.125-8.8125-3-12.656 3.4688-6.9375 6-15.281 7.3125-24.75h138.56c6.2812 0 11.438 5.1562 11.438 11.484l0.14063 73.219c-1.5938-0.46875-3.1875-0.9375-4.9219-0.9375h-595.55c-1.6406 0-3.2344 0.28125-4.7812 0.70312v-72.984c0-6.3281 5.1562-11.438 11.438-11.438zm-75.984 562.03c-1.5938 0-2.9531-0.5625-3.8906-1.6406s-1.3125-2.5781-1.0781-4.2188l61.406-423.74 53.578 429.61h-110.06zm739.18 69.469c0.28125 2.2031-0.28125 4.2188-1.5938 5.7188-1.2656 1.4531-3.1875 2.25-5.3438 2.25h-591.61c-5.0625 0-9.8906-4.3125-10.547-9.4219l-62.766-503.16c14.391 45.234 39 118.88 68.109 185.95 45.469 104.77 84.938 155.76 120.61 155.76 0.60937 0 1.2188 0 1.8281-0.046874 0.09375 0 0.1875-0.046876 0.28125-0.046876h460.69l20.344 162.94zm172.92-194.76c-8.25 12-23.812 18.844-46.266 20.344h-570.19c3.6562-2.8125 6.9844-6.0469 9.8438-9.8906 19.688-26.719 12.562-67.875 7.4062-87.75h598.74c7.2656 24.516 14.203 57.328 0.46875 77.297zm-508.13-198.1c2.1562-3.1406 2.4375-7.3125 0.84375-11.344l-18.234-45.797c-2.6719-6.75-9.9375-11.859-16.828-11.859h-57.938c-3.9844 0-7.4062 1.7344-9.4688 4.7344-2.1562 3.1406-2.4375 7.3125-0.84375 11.344l18.234 45.797c2.6719 6.75 9.9375 11.859 16.828 11.859h57.938c3.9844 0 7.4062-1.7344 9.4688-4.7344zm-67.406-6.75c-1.9688 0-5.1562-2.0625-6.1875-4.5938l-18.234-45.797c-0.046875-0.14062-0.09375-0.28125-0.14062-0.375h57.703c1.9688 0 5.1562 2.0625 6.1875 4.5938l18.234 45.797c0.046875 0.14062 0.09375 0.28125 0.14062 0.375zm-44.156 6.75c2.1562-3.1406 2.4375-7.3125 0.84375-11.344l-18.234-45.797c-2.6719-6.75-9.9375-11.859-16.828-11.859h-57.938c-3.9844 0-7.4062 1.7344-9.4688 4.7344-2.1562 3.1406-2.4375 7.3125-0.84375 11.344l18.234 45.797c2.6719 6.75 9.9375 11.859 16.828 11.859h57.938c3.9844 0 7.4062-1.7344 9.4688-4.7344zm-67.406-6.75c-1.9688 0-5.1562-2.0625-6.1875-4.5938l-18.234-45.797c-0.046875-0.14062-0.09375-0.28125-0.14062-0.375h57.703c1.9688 0 5.1562 2.0625 6.1875 4.5938l18.234 45.797c0.046875 0.14062 0.09375 0.28125 0.14062 0.375zm402.14 6.75c2.1562-3.1406 2.4375-7.3125 0.84375-11.344l-18.234-45.797c-2.6719-6.75-9.9375-11.859-16.828-11.859h-57.938c-3.9844 0-7.4062 1.7344-9.4688 4.7344-2.1562 3.1406-2.4375 7.3125-0.84375 11.344l18.234 45.797c2.6719 6.75 9.9375 11.859 16.828 11.859h57.938c3.9844 0 7.4062-1.7344 9.4688-4.7344zm-67.406-6.75c-1.9688 0-5.1562-2.0625-6.1875-4.5938l-18.234-45.797c-0.046876-0.14062-0.09375-0.28125-0.14063-0.375h57.703c1.9688 0 5.1562 2.0625 6.1875 4.5938l18.234 45.797c0.046876 0.14062 0.09375 0.28125 0.14063 0.375zm-44.203 6.75c2.1562-3.1406 2.4375-7.3125 0.84375-11.344l-18.234-45.797c-2.6719-6.75-9.9375-11.859-16.828-11.859h-57.938c-3.9844 0-7.4062 1.7344-9.4688 4.7344-2.1562 3.1406-2.4375 7.3125-0.84375 11.344l18.234 45.797c2.6719 6.75 9.9375 11.859 16.828 11.859h57.938c3.9844 0 7.4062-1.7344 9.4688-4.7344zm-67.359-6.75c-1.9688 0-5.1562-2.0625-6.1875-4.5938l-18.234-45.797c-0.046876-0.14062-0.09375-0.28125-0.14063-0.375h57.703c1.9688 0 5.1562 2.0625 6.1875 4.5938l18.234 45.797c0.046876 0.14062 0.09375 0.28125 0.14063 0.375zm-24.469 42.984c-2.6719-6.75-9.9375-11.859-16.828-11.859h-57.938c-3.9844 0-7.4062 1.7344-9.4688 4.7344-2.1562 3.1406-2.4375 7.3125-0.84375 11.344l18.234 45.797c2.6719 6.75 9.9375 11.859 16.828 11.859h57.938c3.9844 0 7.4062-1.7344 9.4688-4.7344 2.1562-3.1406 2.4375-7.3125 0.84375-11.344zm-49.969 50.438c-1.9688 0-5.1562-2.0625-6.1875-4.5938l-18.234-45.797c-0.046876-0.14062-0.09375-0.28125-0.14063-0.375h57.703c1.9688 0 5.1562 2.0625 6.1875 4.5938l18.234 45.797c0.046876 0.14062 0.09375 0.28125 0.14063 0.375zm-61.594-50.438c-2.6719-6.75-9.9375-11.859-16.828-11.859h-57.938c-3.9844 0-7.4062 1.7344-9.4688 4.7344-2.1562 3.1406-2.4375 7.3125-0.84375 11.344l18.234 45.797c2.6719 6.75 9.9375 11.859 16.828 11.859h57.938c3.9844 0 7.4062-1.7344 9.4688-4.7344 2.1562-3.1406 2.4375-7.3125 0.84375-11.344zm-49.969 50.438c-1.9688 0-5.1562-2.0625-6.1875-4.5938l-18.234-45.797c-0.046876-0.14062-0.09375-0.28125-0.14063-0.375h57.703c1.9688 0 5.1562 2.0625 6.1875 4.5938l18.234 45.797c0.046876 0.14062 0.09375 0.28125 0.14063 0.375zm384.71-50.438c-2.6719-6.75-9.9375-11.859-16.828-11.859h-57.938c-3.9844 0-7.4062 1.7344-9.4688 4.7344-2.1562 3.1406-2.4375 7.3125-0.84375 11.344l18.234 45.797c2.6719 6.75 9.9375 11.859 16.828 11.859h57.938c3.9844 0 7.4062-1.7344 9.4688-4.7344 2.1562-3.1406 2.4375-7.3125 0.84375-11.344zm-50.016 50.438c-1.9688 0-5.1562-2.0625-6.1875-4.5938l-18.234-45.797c-0.046875-0.14062-0.09375-0.28125-0.14062-0.375h57.703c1.9688 0 5.1562 2.0625 6.1875 4.5938l18.234 45.797c0.046875 0.14062 0.09375 0.28125 0.14062 0.375zm-61.547-50.438c-2.6719-6.75-9.9375-11.859-16.828-11.859h-57.938c-3.9844 0-7.4062 1.7344-9.4688 4.7344-2.1562 3.1406-2.4375 7.3125-0.84375 11.344l18.234 45.797c2.6719 6.75 9.9375 11.859 16.828 11.859h57.938c3.9844 0 7.4062-1.7344 9.4688-4.7344 2.1562-3.1406 2.4375-7.3125 0.84375-11.344zm-50.016 50.438c-1.9688 0-5.1562-2.0625-6.1875-4.5938l-18.234-45.797c-0.046875-0.14062-0.09375-0.28125-0.14062-0.375h57.703c1.9688 0 5.1562 2.0625 6.1875 4.5938l18.234 45.797c0.046875 0.14062 0.09375 0.28125 0.14062 0.375zm-126.66 223.36h57.938c3.7969 0 7.3594-1.5938 9.7969-4.3594 2.4375-2.8125 3.5156-6.5625 2.9531-10.406l-6.4688-45.797c-1.0312-7.3594-7.6406-13.172-15.047-13.172h-57.938c-3.7969 0-7.3594 1.5938-9.7969 4.3594-2.4375 2.8125-3.5156 6.5625-2.9531 10.406l6.4688 45.797c1.0312 7.3594 7.6406 13.172 15.047 13.172zm-9.8438-61.875c0.28125-0.32812 0.79688-0.42188 1.125-0.42188h57.938c1.6875 0 3.4688 1.5938 3.7031 3.2812l6.4688 45.797c0.09375 0.51562 0 0.98438-0.28125 1.2656-0.28125 0.32812-0.79688 0.42188-1.125 0.42188h-57.938c-1.6875 0-3.4688-1.5938-3.7031-3.2812l-6.4688-45.797c-0.09375-0.51562 0-0.98438 0.28125-1.2656zm-110.48-11.859c-3.7969 0-7.3594 1.5938-9.75 4.3594-2.4375 2.8125-3.5156 6.5625-2.9531 10.406l6.4688 45.797c1.0312 7.3594 7.6406 13.172 15.047 13.172h57.938c3.7969 0 7.3594-1.5938 9.7969-4.3594 2.4375-2.8125 3.5156-6.5625 2.9531-10.406l-6.4688-45.797c-1.0312-7.3594-7.6406-13.172-15.047-13.172zm61.641 14.766 6.4688 45.797c0.09375 0.51562 0 0.98438-0.28125 1.2656-0.28125 0.32812-0.79687 0.42188-1.125 0.42188h-57.938c-1.6875 0-3.4688-1.5938-3.7031-3.2812l-6.4688-45.797c-0.09375-0.51562 0-0.98438 0.28125-1.2656 0.28125-0.32812 0.79687-0.42188 1.125-0.42188h57.938c1.6875 0 3.4688 1.5938 3.7031 3.2812zm281.86 58.969h57.938c3.7969 0 7.3594-1.5938 9.7969-4.3594 2.4375-2.8125 3.5156-6.5625 2.9531-10.406l-6.4688-45.797c-1.0312-7.3594-7.6406-13.172-15.047-13.172h-57.938c-3.7969 0-7.3594 1.5938-9.7969 4.3594-2.4375 2.8125-3.5156 6.5625-2.9531 10.406l6.4688 45.797c1.0312 7.3594 7.6406 13.172 15.047 13.172zm-9.8906-61.875c0.28125-0.32812 0.79688-0.42188 1.125-0.42188h57.938c1.6875 0 3.4688 1.5938 3.7031 3.2812l6.4688 45.797c0.09375 0.51562 0 0.98438-0.28125 1.2656-0.28125 0.32812-0.79688 0.42188-1.125 0.42188h-57.938c-1.6875 0-3.4688-1.5938-3.7031-3.2812l-6.4688-45.797c-0.09375-0.51562 0-0.98438 0.28125-1.2656zm-101.67 61.875h57.938c3.7969 0 7.3594-1.5938 9.7969-4.3594 2.4375-2.8125 3.5156-6.5625 2.9531-10.406l-6.4688-45.797c-1.0312-7.3594-7.6406-13.172-15.047-13.172h-57.938c-3.7969 0-7.3594 1.5938-9.7969 4.3594-2.4375 2.8125-3.5156 6.5625-2.9531 10.406l6.4688 45.797c1.0312 7.3594 7.6406 13.172 15.047 13.172zm-9.8906-61.875c0.28125-0.32812 0.79688-0.42188 1.125-0.42188h57.938c1.6875 0 3.4688 1.5938 3.7031 3.2812l6.4688 45.797c0.09375 0.51562 0 0.98438-0.28125 1.2656-0.28125 0.32812-0.79688 0.42188-1.125 0.42188h-57.938c-1.6875 0-3.4688-1.5938-3.7031-3.2812l-6.4688-45.797c-0.09375-0.51562 0-0.98438 0.28125-1.2656z"/>
</svg>
