<?xml version="1.0" encoding="UTF-8"?>
<svg width="1200pt" height="1200pt" version="1.1" viewBox="0 0 1200 1200" xmlns="http://www.w3.org/2000/svg">
 <path d="m560.81 318.92c-31.934 1.3984-50.547 24.039-59.215 68.281-8.6914 43.895-7.375 89.172-2.293 134.31-17.293-9.6523-34.734-19.094-52.453-27.785-38.746-18.734-81.586-46.16-124.84-12.762-34.734 62.414-23.691 114.29 33.602 133.05 28.492 9.375 83.199 38.398 111.04 49.652 0.16016 0.066406 0.28125 0.13281 0.41406 0.21484-34.508 23.828-68.465 50.133-99.293 82.426-15 15.762-36.453 31.387-15.906 49.707 40 35.707 73.906 43.281 107.38 9.5859 19.508-19.574 43.055-46.785 65.762-57.012 3.0664 30.84 6.4531 63.266 8.9062 89.105 3.332 34.027 32 37.16 60.332 42.574 36.945 7 52.922-17.773 49.375-75.148-0.96094-15.691-0.70703-37.773 0.28125-62.922 51.453 24.105 102.43 48.055 160.88 72.508 26.668 11.172 56.039 24.801 58-16.586 1.8789-40.215-12.375-81.398-48.332-98.613l-97.078-58.613 118.41-99.309c31.254-31.039 89.426-71.801 50.762-121.19-43.332-55.332-103.41-21.586-140.13 28.332-18.281 24.801-50.414 44.945-70.492 68.199-6.4531 6.6016-13.746 12.641-20.84 18.762 0.54688-14.934 1.3867-31.602 1.2539-41.961-1.1211-62.973 32.574-140.55-59.039-169.01-13.773-4.2695-25.867-6.2148-36.48-5.8008z" fill="#ff751f"/>
</svg>
