<?xml version="1.0" encoding="UTF-8"?>
<svg width="1200pt" height="1200pt" version="1.1" viewBox="0 0 1200 1200" xmlns="http://www.w3.org/2000/svg">
 <path d="m954.09 305.73c0.67969 0.42578-37.867 83.68-42.508 94.012-3.4141 7.5742-21.945 43.973-35.078 65.574-13.133 21.602-58.746 91.52-67.375 105.41-21.387 34.586-43.172 68.945-65.84 102.97-16.254 24.441-33.121 49.105-47.707 68.348-14.641 19.309-28.332 36.602-49.719 52.293-21.039 12.762-44.293 16.32-65.625 10.68-22.707-6.3086-40.707-16.652-65.492-35.961-24.719-19.309-53.465-53.066-69.426-74.387-15.906-21.238-23.332-32.027-30.785-42.773-12.133-17.625-32.348-30.961-39.785-50.48-5.2656-13.961 3.9609-45.691 8.2812-63.332 1.5859-6.3984 9.1719-12.52 11.172-18.961 6.5859-21.387 23.613-32.281 42.426-23.199 20.281 9.8672 41.535 21.055 53.906 37.586 23.121 30.828 49.641 54.719 53.668 90.266 3.8789 34.32 28.121 48.348 42.078 58.762 13.879 10.465 20.414 16.105 21.586 15.559 13.199-29.387 37.922-50.414 79.867-105.28 41.879-54.852 79.867-100.28 121.54-156.32 23.055-32.16 47.078-67.652 75.055-114.17 10.492-17.52 17.652-36.945 27.707-54.652 10.988-19.238 23.492-37.508 35.574-56.121 4.293-6.668 8.4648-13.812 14.426-19.16 10.359-9.293 31.453-3.332 30.492 37.922-0.33203 11.945-9.293 21.879-14.453 32.707-1.3555-0.76172-22.609 43.465-23.98 42.707z" fill="#ff751f"/>
 <path d="m895.76 801.15c-0.57422 1.1211-17.453 35.973-45.906 69.801-30.414 36.254-63 62.227-73.414 70.559-4.0117 3.2812-14.586 11.332-29.508 21.254-30.762 20.426-76.801 40.906-138.55 46.266-1.0391 0.066406-23.668 2.2266-68.547 0-44.785-2.2266-90.332-16.812-118.75-27.16-23.547-8.5469-46.332-19.188-68.121-31.945-62.078-36.055-114.87-91.387-143.46-160.89-32.508-82.852-27.508-184.88-0.90625-264.67 26.586-79.785 71.668-156.32 130.84-200.15 59.172-43.828 112.71-64.641 167.92-73.332 10.707-1.7188 21.387-3.4648 32.215-5 33.199-4.668 91.945-1.8672 123 5.8398 20.625 5.1484 37.508 18.973 52.508 33.48 6.1211 5.9727 12.84 11.332 17.922 17.773 43.828 55.707 17 66.453-43.121 55.078-98-18.465-159.29-14.387-227.08 14.375-52.293 22.227-91.453 57.293-124.38 110.84-10.414 16.879-23.254 40.625-36.535 73.668-26.172 72.16-38.746 140-11.668 200.21 27.16 60.281 71.613 93.746 104.87 116.33 50.762 33.879 109.17 53.121 164.72 58.547 49.039 4.1602 108.61-0.21484 156.45-29.934 26.121-16.398 54.668-36.586 80.574-60.414 24.508-22.574 42.762-49.398 57.133-75.227 16.254-29.293 26.535-57.973 28.414-88.668 2.4258-39.934 36.387-34.641 43 2.375 7.5039 42.32-11.297 81.492-29.629 120.99z" fill="#ff751f"/>
</svg>
