<?xml version="1.0" encoding="UTF-8"?>
<svg width="1200pt" height="1200pt" version="1.1" viewBox="0 0 1200 1200" xmlns="http://www.w3.org/2000/svg">
 <path d="m419.69 851.11c-3.0469-17.52-7.3438-34.922-8.6875-52.68-0.28906-4.4414-0.67188-8.9023-1.1055-13.32 0.33594-2.5938-1.1523-5.207-3.8867-5.5664-5.3047-0.45703-5.6406 5.0898-4.8477 8.9766 1.0781 21.551 5.5938 42.648 9.6016 63.816 1.0312 5.9023 9.6719 4.6094 8.9531-1.2227zm441.86 38.449c-2.0391-15.504-2.1133-31.414-2.2305-47.09 0.12109-18.719-0.35937-37.441 0.60156-56.137 1.1992-16.656 3.5742-33.383 2.1836-50.09-2.2812-19.176-4.0547-38.426-5.5938-57.695-1.8945-19.055-4.8945-37.969-6.3359-57.07-1.6797-35.352-8.4961-70.297-14.762-105.1-0.91016-4.4648-2.3047-9.4805-3.7188-14.016-0.76953-2.207-1.2461-4.8945-3.1445-6.4062 0.097657-2.6641-2.3516-4.6797-4.8945-4.5859-8.8789-1.1289-17.855-1.0547-26.711-2.4961-0.64844-0.16797-1.3203-0.28906-1.9688-0.43359 0.046876-0.83984-0.16797-1.7266-0.69531-2.6172-9.8164-15-17.855-31.559-27.938-46.586-4.8242-7.9688-11.594-14.449-17.16-21.84-5.1367-7.8477-10.008-15.84-15.098-23.734-9.6953-16.367-23.398-29.977-32.449-46.703-3.625-7.3906-8.5664-15.504-12.91-22.824-8.5195-15.984-18-32.375-32.352-43.848-11.785-9.4062-22.754-20.062-35.762-27.887-10.441-5.8555-21.961-11.039-33.938-12.406-5.3281 0.14453-9.7695 1.6094-15 3.3125-8.207 2.1836-13.68 9.0469-19.199 15.023-12.527 13.008-23.617 27.312-33.121 42.672-14.594 20.305-29.305 40.512-41.785 62.23-20.184 34.129-42.602 66.961-63.625 100.56-5.8086 11.137-12.672 21.719-17.809 33.168-9.168 0.71875-18.336 1.4648-27.48 2.4961-7.6797 0.81641-15.336 1.9219-23.016 2.9297-2.2578 0.38281-4.7773 0.19141-6.6719 1.6328-0.19141 0.14453-0.33594 0.3125-0.50391 0.48047-0.35938-0.097656-0.74219-0.14453-1.1523-0.14453-2.4492 0-4.5117 2.0625-4.5117 4.5117 0 1.0547 0.35938 2.1602 0.625 3.2148 4.5859 32.352 9.5742 64.703 12.77 97.273 2.6172 19.152 6.0703 38.184 7.3203 57.504 2.2578 29.832 1.6797 59.832 3.3594 89.688 1.3438 25.945 6.8398 51.48 7.3906 77.496 1.9219 25.367 1.1523 50.855 3 76.199 1.3438 12.504-1.5586 26.398 2.2812 38.664 0.55078 1.1758 1.3438 1.9219 2.2305 2.3281 0.097656 1.2461 0.69531 2.4727 1.7031 3.3594 1.4141 1.2227 3.6719 1.4141 5.4492 1.5117 12.434 0.48047 24.887 0.69531 37.32 0.35938 12.574 0.23828 25.129 1.6797 37.727 0.86328 17.977-0.79297 35.953-0.19141 53.93 0.48047 15.574-0.070312 31.129 0.55078 46.68 1.3906 21.625 0.38281 43.246-0.64844 64.871 0.60156 15.406 0.64844 30.793-0.81641 46.176-0.98438 15.863 0.16797 31.727 0 47.543-1.3672 20.398-1.5352 40.68-2.2305 61.105-3.8633 7.6797-0.88672 15.312-2.1602 23.016-2.5664h-0.14453-0.21484c21.047-0.86328 42.191-3.1211 62.977-6.625 3.2148-0.50391 4.2969-3.1445 3.793-5.4258 1.3203-2.3984 1.9219-5.7617 2.5938-8.0391 2.7344-13.824-2.0898-27.91-4.8008-41.426zm-447.74-406.85c7.6562-14.594 16.441-28.488 25.801-42.047 29.281-43.777 54.023-90.504 85.871-132.55 8.4492-13.465 17.594-26.473 28.488-38.09 6.0234-5.832 10.801-13.777 18.527-17.426 4.1758-1.5352 8.2812-2.7852 12.719-3.5039 1.6797-0.19141 3.3594 0.097656 5.0156 0.45703 9.6719 2.8789 18.336 6.0234 27.145 11.426 12.719 8.1367 23.543 18.84 35.473 28.008 12.266 11.09 20.641 25.68 28.32 40.129 5.2578 8.5664 10.031 17.398 14.855 26.23 6.5273 11.184 15.121 21.023 22.703 31.488 6.9844 9.793 13.105 20.352 19.633 30.48 3.625 6.1445 8.3516 11.449 13.031 16.777 5.7617 6.9609 10.488 14.734 15.168 22.465 6.168 9.7422 11.258 20.09 17.375 29.855-7.4883-1.0312-15.047-1.5352-22.586-1.9453-2.0898-2.5938-4.0312-5.3047-6-7.9922-4.5117-6.1445-8.9766-12.336-12.48-19.129-3.7422-6.457-8.8789-11.93-13.32-17.879-7.2227-10.512-15.504-20.281-22.945-30.648-13.008-18.961-26.711-37.414-40.273-55.969-7.8242-11.52-17.688-21.336-26.496-32.062-8.6406-12.359-17.617-24.504-29.953-33.48-7.5117-6.4336-12.961-7.9922-16.414-7.3906-10.895-0.45703-37.055 40.32-42.457 48.215-10.105 15.336-20.23 30.625-32.062 44.688-16.297 21.91-33.289 43.273-50.879 64.199-14.664 17.832-27.312 37.152-39.145 56.953-4.1289 0.45703-8.2578 0.91016-12.383 1.4141-3.3359 0.28906-6.6719 0.52734-9.9844 0.79297 2.3047-4.5586 4.8008-9.0234 7.3203-13.488zm335.54 0.96094c-25.465-2.4961-51.336-2.0156-76.922-2.0898-10.414-0.23828-20.809-1.1523-31.246-1.3203-20.809-0.046875-41.594 1.5859-62.375 2.1836-31.176 2.3516-62.23 5.9023-93.406 8.1836-15.145-0.070312-30.191 0.81641-45.215 2.207 0.91016-1.4648 1.8242-2.9023 2.7109-4.3672 6.2383-9.6016 11.855-19.703 18.91-28.727 14.16-18.961 29.688-36.168 44.113-55.078 13.656-18.168 28.199-35.375 41.062-54.359 8.2578-12.168 15.984-24.672 24.863-36.383 6.2891-9.2148 13.199-18.098 21.961-25.055 0.38281 0 0.79297 0 1.2227-0.097656 7.4414 2.7617 13.008 8.9023 18.984 13.922 7.2461 6.9375 12.504 15.48 18.527 23.449 6.0234 7.3906 12.457 14.496 18.793 21.625 6.4336 8.6875 12.961 17.328 19.078 26.23 11.23 14.328 21.168 29.594 31.922 44.258 9.2383 11.953 18 24.047 27.312 35.977 3.7188 4.3438 6.3594 9.3828 9.2148 14.328 3.2891 5.1602 6.8164 10.176 10.512 15.07zm108.65 443.38c-0.14453 2.6641-2.0898 6.0469-2.6641 9-18.742 3.0234-37.535 5.0391-56.543 5.9023-17.809 1.3438-35.473 4.1523-53.398 4.4648-21.84 1.0781-43.633 3.4805-65.52 3.4336-15.672-0.40625-31.344 0.76953-47.016 1.0781-21-0.023438-41.953-1.4648-62.953-0.57422-15.984 0.38281-31.895-1.3906-47.879-1.4141-15.863 0.16797-31.703-1.0078-47.594-0.98438-10.199-0.023437-20.398 0.60156-30.574 0.625-10.754 0.16797-21.457-1.4648-32.207-1.0078-11.09 0.3125-22.199 0.070312-33.266-0.52734-0.046875 0-0.097657-0.023437-0.14453-0.046875-0.023438-0.50391-0.12109-1.0078-0.35938-1.5586-2.5938-10.586-0.52734-22.152-1.4883-33.047-2.543-40.824-1.0781-82.008-7.1055-122.59-6-39.238-3.625-79.031-6.457-118.54-0.98438-20.855-4.7773-41.93-7.7031-62.832-2.9023-28.922-6.9844-57.719-11.281-86.449-0.55078-2.1602-0.57422-6.2383-1.1758-9.9102 0.3125-0.070313 0.625-0.16797 0.91016-0.3125 3.9844-0.57422 7.9688-1.0312 11.93-1.5859 13.586-1.8711 27.238-3.0703 40.922-4.1758 0.26562 0.16797 0.55078 0.3125 0.83984 0.40625 1.5586 0.60156 3.0234 0.16797 4.1758-0.74219 19.344-1.3672 38.566-4.1992 57.938-5.4492 18.742-0.16797 37.391-1.1523 56.039-3.168 21.047-1.1758 41.902-4.2461 62.93-5.5664 30.406-1.1758 60.816-3.3594 91.199-0.96094 27.719 0.3125 55.32-0.52734 82.969 2.4961 1.5117 0.12109 3.0234 0.21484 4.5352 0.28906 1.8242 1.6094 3.9844 1.4141 5.5195 0.3125 9.457 0.50391 18.984 1.0078 28.223 3.2148 9.9609 2.3281 20.305 2.4258 30.457 3.3594 0.097657 0.91016 0.43359 1.8008 1.0312 2.4492 2.1133 6.3828 3.7695 12.719 5.0625 19.344 3.5039 20.113 7.0078 40.223 10.105 60.406 3.1445 23.398 3.7188 47.039 6.9102 70.441 2.7109 19.391 4.1055 38.855 5.8555 58.344 1.6328 16.273 4.4883 32.52 2.7344 48.938-3.0234 29.426-2.8555 58.969-2.7109 88.488 0.33594 14.449 0.3125 29.016 2.543 43.344 1.4414 7.0781 3.5273 14.039 4.4648 21.191 0.38281 4.6094 1.2734 9.3125 0.69531 13.922zm-307.99-200.16v-0.023437 0.023437zm164.09-103.73c-7.2227-7.8477-17.594-12.816-28.391-11.785-10.969 0.83984-20.594 7.3672-29.137 13.824-14.23 10.535-25.727 24.434-32.398 40.895-6-11.832-14.734-22.68-26.566-29.016-7.6328-3.5039-15.719-6.625-24-7.9688-10.68-0.625-22.176 0.070313-31.367 6.0703-11.734 7.7773-24.719 18.938-23.543 34.391-0.19141 21.648 8.7617 42.406 20.375 60.406 15.91 24.719 39.719 42.527 65.281 56.473 8.1836 4.9922 16.32 10.055 25.199 13.801 6.5273 2.6172 13.223 6.793 20.426 6.5508 0.12109 0.23828 0.26563 0.48047 0.43359 0.67187 0.98438 1.2461 2.1133 1.7266 3.2891 1.7266 2.2578 0 4.6094-1.8242 6.0469-3.6953 3.8867-3.9375 7.9688-7.6797 11.375-12.098 16.609-16.727 26.426-38.93 38.328-59.184 18.289-25.391 27.434-55.609 19.969-86.664-2.4492-9.5742-8.1602-17.785-15.359-24.406zm-155.28 103.11c-0.21484 1.1758-0.91016 2.207-1.8711 2.9023-0.74219 0.50391-1.6797 0.76953-2.5938 0.76953-1.4648 0-2.9023-0.64844-3.6719-1.9219-0.16797-0.26562-0.3125-0.50391-0.45703-0.76953 0.023438 0.046875 0.046875 0.070312 0.070313 0.12109-0.097657-0.14453-0.19141-0.3125-0.26562-0.45703 0 0 0 0.023438 0.023437 0.046876 0 0 0-0.023438-0.023437-0.046876-0.48047-0.81641-0.96094-1.6094-1.5117-2.3984-0.57422-0.81641-1.2227-1.6094-1.8008-2.4492-1.7266-2.3984-3.3359-4.8711-4.7266-7.4883-1.5352-2.9023-3.0703-5.7852-3.9844-8.9531-0.96094-3.2656-1.7031-6.6016-2.4492-9.9375-0.52734-2.3984 1.0547-4.8477 3.4336-5.375 2.3984-0.52734 4.8242 1.0547 5.375 3.4336 0.67188 3.0234 1.3203 6.0469 2.1836 9.0469 0.26562 0.88672 0.57422 1.7773 0.9375 2.6641 1.0547 2.2812 2.2305 4.5352 3.4805 6.7188 1.1523 1.8711 2.3984 3.6953 3.7188 5.4961 0.50391 0.67188 1.0547 1.3438 1.5117 2.0625 0.625 0.9375 1.1992 1.9219 1.7773 2.9023 0.046875 0.070312 0.097656 0.16797 0.16797 0.23828 0.625 1.0547 0.9375 2.1602 0.71875 3.3828zm268.63 143.86c0.097656 6.1914 1.5859 12.383-0.046875 18.527-0.38281 4.7031-5.8086 12.289 0.74219 14.688 7.0078 1.5117 6.9375-10.055 8.4258-14.641 1.4648-6.1445 0.070313-12.383-0.097656-18.574-0.14453-5.9297-8.8789-5.9023-9.0234 0zm-402.5 16.129c-0.14453-5.9297-8.8789-5.9023-9.0234 0 0.28906 7.3438 3.5273 14.23 5.5664 21.191 0.76953 2.3516 3.1914 3.8164 5.543 3.1445 2.2812-0.625 3.9375-3.2148 3.1445-5.543-1.8711-6.1914-4.6328-12.336-5.2578-18.793z"/>
</svg>
