<?xml version="1.0" encoding="UTF-8"?>
<svg width="1200pt" height="1200pt" version="1.1" viewBox="0 0 1200 1200" xmlns="http://www.w3.org/2000/svg">
 <path d="m681.11 551.77c-8.2656 0-16.52 0.066406-24.801 0.34766-72.973 2.4141-197.56 3.0547-270.55 3.1719-103.96 1.8125-156.6 3.3477-260.43 5.7188-5 0.066406-17.574 7-22.922 13.961-6.9453 8.9609-4.4414 6.9883-3.0547 16.652 2.2266 15.148 13.547 15.066 30.773 19.734 23.465 6.3867 53.668-4.1055 77.215-5.9727 35.078-2.7344 70 8.4648 104.95 5.2812 33.812-3.0547 67.691 4.3086 101.6 1.9453 114.44-7.7188 230.46-10.762 343.95-13.746 50.707-1.3984 60.426-4.2383 111.19-5.625 6.8125-0.22656 38.895-0.22656 45.762-0.41406-36.254 10.492-87.906 16.387-122.84 35.812-0.76172 0.35938-6.1719 7.2383-2.5586 9.7344 29.293 20.066 80.48 5.5586 109.44-3.0664 64.668-18.801 111.67-22.48 184.73-31.309 9.6523-1.1211 20.188-10.625 17.773-18-3.2812-10.078-9.6523-17.375-20.906-19.773-12.641-2.8008-31.945 1.8008-40.691-1.1211-20.773-6.8945-87.172-0.625-108.69-0.83984-29.359-0.28125-46.441 0.76172-75.828-1.4531-57.793-4.4375-116.19-10.973-174.11-11.039z" fill="#ff751f"/>
</svg>
