<?xml version="1.0" encoding="UTF-8"?>
<svg width="1200pt" height="1200pt" version="1.1" viewBox="0 0 1200 1200" xmlns="http://www.w3.org/2000/svg">
 <path d="m319.91 197.89c89.801 3.9609 131.54 98 169.72 165.84 52.922 104.29 105.49 213.05 112.72 331.72 22.773 53.773 68.398 7.293 44.906-32.398 9.668-68.828 25.988-140.08 63.414-200.79 41.801-71.668 83.414-152.62 159.09-193.05 69.785 7.2148 73.121 106.93 80.906 162.16 10.332 73.441-13.199 155.19-40.84 220.68-66.332 101.88-205.49 318.96-314.51 342.79-98.613-77.32-266.25-352.65-299.52-441.75-23.055-107.29-49.359-224.54-9.2383-330.62 7.2539-12.16 16.066-27.336 33.348-24.574zm19.602-88.547c-100.48-5.1602-160.56 97.215-167.72 185.88-23.535 180.16 71.812 344.83 167.43 489.17 72.641 107.92 162.57 203.36 253.41 295.57 32.84 27.293 60.961 0.78516 37.348-40.215 54.172-31.453 90.281-74.375 139.12-114.67 100.46-77.84 167.21-190.76 223.88-302.43 44.922-114.79 59.172-255.05-6.4531-364.79-35.078-53.879-110.28-70.465-164.29-35.215-86.039 55.68-143.28 149.01-178.41 243.55-10 29.719-18.668 84.094-25.215 25-22.281-105.13-74.426-202.71-135.55-290.13-36.746-43.344-83.414-88.453-143.55-91.73z" fill="#ff751f"/>
</svg>
