<?xml version="1.0" encoding="UTF-8"?>
<svg width="1200pt" height="1200pt" version="1.1" viewBox="0 0 1200 1200" xmlns="http://www.w3.org/2000/svg">
 <path d="m996.63 697.44c-4.5898-1.0781-9.3008-2.2188-14.07-3.3594-0.42188-0.14844-0.80859-0.23828-1.2305-0.30078-24.602-6.1484-49.051-13.109-72.66-20.672-0.14844-0.058594-0.32812-0.14844-0.51172-0.21094-0.26953-0.089844-0.57031-0.17969-0.83984-0.23828-6.2383-2.0117-12.391-4.0781-18.359-6.1484-15.121-5.1602-30.238-10.711-45-16.5h-0.03125c-11.941-4.6797-24.031-9.6914-36.148-14.941l54.301-52.109c11.16-10.68 11.52-28.469 0.80859-39.66-10.68-11.129-28.441-11.488-39.629-0.78125l-77.91 74.762-40.949-65.941-12.301-19.828c-0.35938-0.71875-0.83984-1.3516-1.4102-1.8906-9.9609-10.531-22.59-16.98-36.09-18.539 2.9102-2.5508 5.6719-5.4297 8.2188-8.6406 11.012-13.828 17.07-32.129 17.07-51.539 0-10.68-1.9219-21.359-5.5781-31.02 0.48047-1.9219 0.71875-3.9297 0.71875-5.9414v-40.77c10.59-4.6797 21.148-9.5391 31.621-14.578l41.012 70.621c1.2891 2.2188 3.6289 3.4805 6.0312 3.4805 1.1719 0 2.3711-0.30078 3.4805-0.92969l66.57-38.52c1.5898-0.92969 2.7617-2.4609 3.2383-4.2305 0.48047-1.7695 0.21094-3.6914-0.69141-5.2812l-39.238-67.836c12-6.9883 23.852-14.219 35.52-21.629 3.6914-2.3398 7.3789-4.7383 11.07-7.1406l43.352 69.031c1.3203 2.1016 3.6016 3.2695 5.9102 3.2695 1.2617 0 2.5508-0.32813 3.6914-1.0508l65.191-40.859c3.2383-2.0391 4.2305-6.3281 2.2188-9.5703l-45.93-73.77c12.27-9.5117 24.328-19.262 36.148-29.25 2.9414-2.4883 3.3008-6.8711 0.83984-9.8086-2.4609-2.9414-6.8711-3.3008-9.8086-0.83984-32.672 27.57-67.23 53.461-102.93 77.102-0.058594 0.03125-0.14844 0.089844-0.21094 0.12109-0.17969 0.089844-0.32812 0.21094-0.48047 0.32812-5.4609 3.6016-10.949 7.1719-16.469 10.68-44.641 28.379-91.738 53.699-140.07 75.391l-0.003906-141.06c0-13.352-10.859-24.18-24.18-24.18h-62.012c-13.352 0-24.18 10.859-24.18 24.18v197.43c0 1.8281 0.21094 3.6016 0.60156 5.3398-3.7812 9.8984-5.6992 20.398-5.6992 31.262 0 19.41 6.0898 37.711 17.129 51.539 2.4297 3.0586 5.0703 5.8203 7.8281 8.2812-1.5 0-2.1602 0-2.3086 0.03125h-0.058593c-9.8711 0.57031-19.41 3.7812-27.93 9.3008-7.5898-6.3594-16.051-11.52-25.199-15.391-12.359-5.2188-25.469-7.8906-39-7.8906-13.109 0-25.859 2.4883-37.859 7.4102-22.738-7.5898-45.512-15.961-67.711-24.961-0.42188-0.23828-0.89844-0.42188-1.3789-0.57031-1.2617-0.51172-2.4883-1.0508-3.75-1.5586-4.5898-1.9219-9.3594-3.8711-14.07-5.9102-37.922-16.23-75.422-34.891-111.51-55.469-12.691-7.1992-25.41-14.82-38.91-23.219-3.2695-2.0391-7.5586-1.0195-9.6016 2.2188-2.0391 3.2695-1.0195 7.5586 2.2188 9.6016 11.672 7.2617 22.77 13.922 33.75 20.281l-35.129 73.711c-1.6484 3.4805-0.17969 7.6211 3.2695 9.2695l69.391 33.211c0.96094 0.44922 1.9805 0.69141 3 0.69141 0.78125 0 1.5586-0.12109 2.3086-0.39062 1.7383-0.60156 3.1797-1.8906 3.9609-3.5703l33.781-70.648c12.57 5.9688 25.23 11.672 37.922 17.102 4.0781 1.7383 8.1602 3.4492 12.148 5.1016l-32.551 74.762c-0.75 1.6797-0.78125 3.6016-0.089844 5.3398 0.69141 1.7383 2.0117 3.0898 3.6914 3.8398l46.922 20.43c-0.03125 1.1719-0.058593 2.3398-0.058593 3.5391 0 5.1602 0.39062 10.289 1.1719 15.301-5.0391 0.42188-10.289 0.83984-15.629 1.1992-41.52 2.9414-83.398 3.5391-124.53 1.8008-14.969-0.60156-30.18-1.5586-45.211-2.8203-3.8398-0.32812-7.1992 2.5195-7.5312 6.3594-0.32812 3.8398 2.5195 7.1992 6.3594 7.5312 13.078 1.0781 26.25 1.9492 39.301 2.5508l2.5508 81.602c0.12109 3.7812 3.2109 6.75 6.9609 6.75h0.21094l76.891-2.2812c1.8594-0.058593 3.6016-0.83984 4.8594-2.1914 1.2617-1.3516 1.9492-3.1484 1.8906-4.9805l-2.3398-78.27c13.859-0.48047 27.719-1.1992 41.52-2.1602 6.0898-0.42188 12.09-0.89844 17.789-1.3789 1.0195 3.3906 2.2188 6.7188 3.6016 9.9883 5.0391 11.941 12.27 22.648 21.48 31.859 9.2109 9.2109 19.922 16.441 31.859 21.48 12.359 5.2188 25.469 7.8906 39 7.8906 11.488 0 22.68-1.9219 33.391-5.6992v16.109c0 13.891 3.6914 27.301 10.531 38.672l-33.07 222.43c0 0.089843-0.03125 0.21094-0.058594 0.32812-0.32812 1.8281-1.0781 6.1211 0.42188 11.102 2.1602 7.1406 7.8906 12.84 17.102 16.949 7.0508 3.1484 16.199 5.4883 27.961 7.1094 20.82 2.8789 45.871 2.9688 68.012 3.0898 4.1719 0.03125 8.5508 0.03125 13.051 0.03125 18.809 0 39.75-0.35938 57.48-2.5781 12.422-1.5586 22.078-3.8984 29.52-7.0781 9.75-4.1719 15.781-10.02 17.969-17.398 1.5898-5.3711 0.62891-10.02 0.21094-11.82l-33-222.15c6.8398-11.281 10.531-24.691 10.531-38.699v-41.012l5.6719 9.1211c0.03125 0.058594 0.058594 0.12109 0.089844 0.14844 1.9219 2.9102 7.4688 9.9609 17.309 12.359 1.9492 0.48047 3.8086 0.71875 5.6094 0.75l-6.3906 16.469c-1.3789 3.5703 0.39062 7.6211 3.9609 9l71.672 27.898c0.80859 0.32813 1.6797 0.48047 2.5195 0.48047 0.96094 0 1.9219-0.21094 2.7891-0.60156 1.6797-0.75 3.0312-2.1289 3.6914-3.8398l28.379-72.961c12.871 4.9492 25.98 9.7188 39.059 14.191 4.0781 1.4102 8.25 2.8203 12.512 4.2305l-26.82 76.949c-1.2617 3.6289 0.66016 7.5898 4.2891 8.8789l72.602 25.379c0.75 0.26953 1.5312 0.39062 2.3086 0.39062 2.8789 0 5.5508-1.8008 6.5703-4.6484l28.891-81.93c2.9102 0.69141 5.8203 1.3789 8.6406 2.0703 0.53906 0.12109 1.0781 0.17969 1.6211 0.17969 3.1484 0 6-2.1602 6.7812-5.3398 0.82812-3.6602-1.4805-7.4414-5.2031-8.3086zm-58.141-388.05-53.398 33.48-39.809-63.422c17.52-11.762 34.77-24.031 51.66-36.781zm-127.74 75.211-54.539 31.559-37.02-63.719c18.871-9.3281 37.469-19.23 55.77-29.609zm-532.29 140.64-56.852-27.18 31.711-66.539c18.328 10.289 37.02 20.102 55.922 29.34zm44.488 176.07-62.969 1.8594-2.2812-73.648c13.02 0.44922 26.129 0.69141 39.238 0.69141 7.9492 0 15.93-0.089844 23.91-0.26953zm255.63-484.47c0-5.6719 4.5898-10.262 10.262-10.262h62.012c5.6719 0 10.262 4.5898 10.262 10.262l-0.003906 151.26c-0.03125 0.32813-0.03125 0.66016 0 1.0195v44.82c0 1.0508-0.14844 2.1016-0.44922 3.0898-0.21094 0.42188-0.35938 0.83984-0.48047 1.2891-0.78125 1.7383-2.0391 3.2695-3.6602 4.4102-2.7305 1.9219-6.0586 2.3711-9.0898 1.2617-0.48047-0.17969-0.89844-0.32813-1.3203-0.48047-4.6484-1.7109-7.2891-2.6094-16.801-3.8711-3.0312-0.39062-11.07-1.4688-20.941 0.26953l-1.5 0.26953c-6.75 1.1719-8.2188 1.4688-14.699 3.8398-3.0586 1.1406-6.3906 0.69141-9.1211-1.1992-1.6797-1.1719-2.9414-2.7891-3.6914-4.5898-0.089844-0.32812-0.21094-0.62891-0.32812-0.96094-0.26953-0.92969-0.42188-1.9219-0.42188-2.9414zm9 276.93c-9.0898-11.398-14.102-26.609-14.102-42.871 0-5.6406 0.60156-11.16 1.8281-16.531 4.0508 2.7617 8.6719 4.1719 13.352 4.1719 2.7617 0 5.5508-0.48047 8.2812-1.5 5.5195-2.0117 6.1484-2.1289 12.27-3.2109l1.5312-0.26953c7.7695-1.3516 14.281-0.51172 16.738-0.17969 8.3711 1.1094 10.078 1.7383 13.77 3.1211 0.44922 0.14844 0.89844 0.32812 1.3789 0.51172 7.2617 2.6406 15.059 1.6797 21.512-2.6719 1.1992 5.3711 1.8281 10.949 1.8281 16.531 0 32.852-20.551 59.578-45.898 59.789h-0.62891c-11.906-0.058594-23.219-6.0586-31.859-16.891zm-4.7383 30.902c1.7695-0.03125 19.141-0.03125 36.602-0.03125h0.32812 0.35938 27.988c10.172 0 19.922 3.6602 28.078 10.441 0.89844 6.3594 1.3516 12.898 1.3516 19.441 0 25.68-6.6289 49.77-18.66 67.77-11.461 17.129-26.43 26.578-42.121 26.578-11.91 0-23.371-5.3984-33.301-15.629 4.4688-11.551 6.75-23.699 6.75-36.211 0-13.531-2.6406-26.641-7.8906-39-4.3516-10.262-10.289-19.648-17.762-27.898 5.7383-3.2422 11.918-5.0742 18.277-5.4609zm-227.97 38.367 29.91-68.672c16.559 6.6016 33.422 12.898 50.34 18.75-5.7305 3.75-11.07 8.1016-15.988 13.02-9.2109 9.2109-16.441 19.922-21.48 31.859-2.8789 6.7812-4.9492 13.77-6.2695 20.969zm48.84 33.961c0-2.2812 0.089843-4.5586 0.26953-6.8086 0.058593-0.39062 0.089843-0.75 0.089843-1.1406 4.0195-43.891 41.012-78.359 85.922-78.359 47.578 0 86.281 38.699 86.281 86.281 0 34.078-19.859 63.602-48.602 77.609-0.23828 0.089844-0.48047 0.21094-0.69141 0.32812-11.219 5.3398-23.762 8.3398-36.988 8.3398-47.582 0.03125-86.281-38.672-86.281-86.25zm248.49 179.76c12.57-2.1602 24.449-7.7109 35.309-16.5l4.4688 30c-12.781 9.6289-26.43 15.988-40.59 18.898-8.3398 1.7383-27.602 2.1016-34.859 2.1016h-0.39062c-15.629-0.03125-24.238-0.058594-34.172-2.1016-14.129-2.9102-27.719-9.3008-40.469-19.051l4.3516-29.25c12.48 10.98 27.359 13.828 36.809 15.629 0.51172 0.089844 0.98828 0.17969 1.4688 0.26953 1.0781 0.21094 4.0195 0.78125 24.781 0.78125 3.1484 0 6.75 0 10.801-0.03125 0.24219 0.03125 29.344-0.20703 32.492-0.74609zm66.691 194.61v0.03125c0.21094 0.83984 0.66016 2.8516 0.03125 4.9492-1.1719 3.8984-7.3516 10.98-35.879 14.609-21.059 2.6719-47.488 2.5508-68.699 2.4297-21.691-0.089844-46.262-0.21094-66.148-2.9688-26.609-3.6602-32.488-10.531-33.629-14.281-0.53906-1.8008-0.23828-3.5391-0.03125-4.6797 0.058594-0.26953 0.089844-0.48047 0.12109-0.69141l24.539-165.18c12.66 8.5508 26.039 14.34 39.961 17.191 11.309 2.3398 20.969 2.3398 36.961 2.3711h0.23828c2.8789 0 26.672-0.058594 37.859-2.3711 13.949-2.8789 27.391-8.6406 40.078-17.102l24.508 165.12c0.027344 0.17969 0.058594 0.35938 0.089844 0.57031zm8.6094-303.06-18.512-29.762c-1.6484-2.6406-4.8281-3.8711-7.8281-3.0312s-5.0391 3.6016-5.0391 6.6914v65.43c0 12.031-3.2695 23.398-9.3281 32.789-0.23828 0.30078-0.48047 0.66016-0.66016 0.98828-1.1719 1.7109-2.3984 3.3594-3.75 4.9219-9.9609 9.0586-20.852 14.672-32.371 16.68-5.9102 0.53906-57.988 1.0508-63.27 0.12109-0.48047-0.089844-0.98828-0.17969-1.5-0.30078-9.7812-1.8594-24.539-4.7109-34.711-17.07-8.5508-10.379-13.23-23.941-13.23-38.16v-22.262c8.6406-4.6211 16.531-10.5 23.551-17.52 6.4219-6.4219 11.879-13.59 16.289-21.359 4.4414 4.0195 9.1484 7.3203 14.102 9.8984 8.1289 4.2305 16.711 6.3906 25.5 6.3906 10.469 0 20.609-3.0312 30.09-9.0312 8.9102-5.6406 16.828-13.621 23.609-23.73 13.172-19.711 20.609-45.602 21-73.172l1.1406 1.8281 45.512 73.23c0.03125 0.03125 0.058594 0.089844 0.089844 0.12109 2.0703 3.2109 6.3594 4.1406 9.5703 2.1016 0.53906-0.32812 0.98828-0.71875 1.4102-1.1719l83.789-80.398c5.6406-5.3984 14.578-5.2188 19.949 0.35938 5.3984 5.6406 5.2188 14.578-0.39062 19.949l-101.34 97.199-0.089844 0.089844c-0.12109 0.12109-1.3203 1.2891-3.3008 2.4609-0.66016 0.23828-1.2891 0.57031-1.8594 0.98828-2.5508 1.1719-5.8516 1.9805-9.4805 1.0781-4.9805-1.1562-7.8906-4.7852-8.9414-6.3477zm79.02 58.59-58.711-22.859 7.7109-19.859c2.8516-1.8008 4.7109-3.5391 5.2812-4.0781l36.09-34.621c11.852 5.2188 23.762 10.199 35.52 14.91zm138.51 52.773-59.488-20.789 24.629-70.68c19.922 6.2695 40.379 12.09 60.961 17.371z"/>
</svg>
