<?xml version="1.0" encoding="UTF-8"?>
<svg width="1200pt" height="1200pt" version="1.1" viewBox="0 0 1200 1200" xmlns="http://www.w3.org/2000/svg">
 <path fill="#000000" d="m198.84 867.66c-52.5 0-95.297 42.797-95.297 95.297 5.2031 126.42 185.44 126.37 190.6 0 0-52.5-42.703-95.297-95.297-95.297z"/>
 <path fill="#000000" d="m810.32 177.1h-91.734c-70.031 0-127.03 58.828-127.03 131.11v558.94c0 33.375-25.312 60.516-56.438 60.516h-91.734c-46.547 1.4531-46.828 69 0 70.594h91.734c70.031 0 127.03-58.828 127.03-131.11v-558.94c0-33.375 25.312-60.516 56.438-60.516h91.734c46.547-1.4531 46.828-69 0-70.594z"/>
 <path fill="#000000" d="m955.26 141.79h141.19v141.19h-141.19z"/>
</svg>
