<?xml version="1.0" encoding="UTF-8"?>
<svg width="1200pt" height="1200pt" version="1.1" viewBox="0 0 1200 1200" xmlns="http://www.w3.org/2000/svg">
 <path fill="#CF4D21" d="m295.39 678.77c-5.625 0-11.156 1.5391-16.125 4.1445v-64.387c0-19.594-15.656-35.551-34.895-35.551-5.8516 0-11.289 1.6133-16.145 4.2383v-1.6133c0-19.48-15.656-35.344-34.895-35.344-19.367 0-35.137 15.863-35.137 35.344v1.6133c-4.8555-2.625-10.293-4.2383-16.145-4.2383-19.18 0-34.762 15.863-34.855 35.383-4.8555-2.6055-10.293-4.2188-16.164-4.2188-19.238 0-34.895 15.844-34.895 35.324v189.38c0 4.3125 0.71094 8.1562 2.1016 11.664 10.273 88.48 67.012 152.62 135.09 152.62 42.637 0 81.992-25.332 107.91-69.43 18.992-31.836 29.043-70.426 29.043-111.58v-108.02c0.003906-19.824-15.316-35.328-34.891-35.328zm-10.273 245.38c-22.5 38.27-55.949 60.227-91.781 60.227-57.602 0-107.7-58.742-116.53-136.63-0.054687-0.52344-0.16797-1.0703-0.32031-1.5938-1.0508-7.125-1.5742-15.227-1.5742-24.039v-172.63c0-9.1328 7.2383-16.574 16.145-16.574 8.7578 0 16.145 7.5742 16.145 16.574v48.883c0 5.1758 4.1992 9.375 9.375 9.375 5.1758 0 9.375-4.1992 9.375-9.375v-79.82c0-9.2617 7.2383-16.801 16.125-16.801 9.0547 0 16.145 7.3867 16.145 16.801v79.836c0 5.1758 4.1992 9.375 9.375 9.375 5.1758 0 9.375-4.1992 9.375-9.375v-112.76c0-9.1484 7.3516-16.594 16.387-16.594 8.9062 0 16.145 7.4258 16.145 16.594v112.76c0 5.1758 4.1992 9.375 9.375 9.375 5.1758 0 9.375-4.1992 9.375-9.375v-79.836c0-9.4141 7.0859-16.801 16.145-16.801 8.9062 0 16.145 7.5195 16.145 16.801v189.13c0 5.1758 4.1992 9.375 9.375 9.375 5.1758 0 9.375-4.1992 9.375-9.375v-93.562c0-4.7266 2.0234-9.3203 5.5117-12.543 2.7734-2.5312 6.75-4.0312 10.613-4.0312 9.0547 0 16.145 7.293 16.145 16.574v108.02c-0.023438 37.223-9.3984 73.445-26.441 102.02z"/>
 <path fill="#CF4D21" d="m1105 614.16c-5.8672 0-11.305 1.6133-16.145 4.1992-0.09375-19.5-15.695-35.363-34.875-35.363-5.8516 0-11.289 1.6133-16.145 4.2383v-1.6133c0-19.48-15.75-35.344-35.137-35.344-19.238 0-34.895 15.863-34.895 35.344v1.6133c-4.8555-2.625-10.293-4.2383-16.145-4.2383-19.238 0-34.875 15.957-34.875 35.551v64.367c-4.9688-2.5859-10.52-4.125-16.145-4.125-19.555 0-34.895 15.508-34.895 35.324v108.02c0 41.156 10.051 79.742 29.008 111.52 25.969 44.156 65.305 69.488 107.95 69.488 68.062 0 124.8-64.125 135.09-152.61 1.3867-3.5234 2.1016-7.3516 2.1016-11.68v-189.38c0-19.48-15.656-35.324-34.895-35.324zm-102.3 370.22c-35.812 0-69.262-21.957-91.801-60.281-17.008-28.52-26.383-64.742-26.383-101.98v-108.02c0-9.2812 7.0859-16.574 16.145-16.574 3.8633 0 7.8359 1.5195 10.555 3.9766 3.543 3.2812 5.5703 7.875 5.5703 12.602v93.562c0 5.1758 4.1992 9.375 9.375 9.375 5.1758 0 9.375-4.1992 9.375-9.375v-189.13c0-9.2617 7.2383-16.801 16.125-16.801 9.0547 0 16.145 7.3867 16.145 16.801v79.836c0 5.1758 4.1992 9.375 9.375 9.375s9.375-4.1992 9.375-9.375v-112.76c0-9.1484 7.2383-16.594 16.145-16.594 9.0195 0 16.387 7.4258 16.387 16.594v112.76c0 5.1758 4.1992 9.375 9.375 9.375s9.375-4.1992 9.375-9.375v-79.836c0-9.4141 7.0859-16.801 16.145-16.801 8.9062 0 16.145 7.5195 16.145 16.801v79.82c0 5.1758 4.1992 9.375 9.375 9.375s9.375-4.1992 9.375-9.375v-48.883c0-8.9805 7.3867-16.574 16.125-16.574 8.9062 0 16.145 7.4258 16.145 16.574v172.63c0 8.2109-0.44922 15.77-1.4453 23.586-0.019531 0.11328-0.074219 0.1875-0.09375 0.30078-0.019531 0.054687 0 0.11328 0 0.14844-0.16797 0.52344-0.32031 1.0703-0.375 1.6133-8.832 77.887-58.93 136.63-116.53 136.63z"/>
 <path fill="#CF4D21" d="m297.34 644.83c0 5.1758 4.1992 9.375 9.375 9.375h582.64c5.1758 0 9.375-4.1992 9.375-9.375s-4.1992-9.375-9.375-9.375h-582.64c-5.1719 0-9.375 4.1797-9.375 9.375z"/>
 <path fill="#CF4D21" d="m1143.8 196.88h-1087.5c-5.1758 0-9.375 4.1992-9.375 9.375v390.92c0 5.1758 4.1992 9.375 9.375 9.375s9.375-4.1992 9.375-9.375v-381.54h1068.8v384.77c0 5.1758 4.1992 9.375 9.375 9.375s9.375-4.1992 9.375-9.375v-394.14c0-5.1758-4.1992-9.375-9.375-9.375z"/>
 <path fill="#CF4D21" d="m626.61 244.71h-53.137c-5.1758 0-9.375 4.1992-9.375 9.375v54.039c0 5.1758 4.1992 9.375 9.375 9.375h53.137c5.1758 0 9.375-4.1992 9.375-9.375v-54.039c0-5.1953-4.1797-9.375-9.375-9.375zm-9.375 54.035h-34.387v-35.289h34.387z"/>
 <path fill="#CF4D21" d="m528.49 244.71h-53.137c-5.1758 0-9.375 4.1992-9.375 9.375v54.039c0 5.1758 4.1992 9.375 9.375 9.375h53.137c5.1758 0 9.375-4.1992 9.375-9.375v-54.039c0-5.1953-4.1992-9.375-9.375-9.375zm-9.375 54.035h-34.387v-35.289h34.387z"/>
 <path fill="#CF4D21" d="m430.37 244.71h-53.137c-5.1758 0-9.375 4.1992-9.375 9.375v54.039c0 5.1758 4.1992 9.375 9.375 9.375h53.137c5.1758 0 9.375-4.1992 9.375-9.375v-54.039c0-5.1953-4.1992-9.375-9.375-9.375zm-9.375 54.035h-34.387v-35.289h34.387z"/>
 <path fill="#CF4D21" d="m332.23 244.71h-53.137c-5.1758 0-9.375 4.1992-9.375 9.375v54.039c0 5.1758 4.1992 9.375 9.375 9.375h53.137c5.1758 0 9.375-4.1992 9.375-9.375v-54.039c0-5.1953-4.1992-9.375-9.375-9.375zm-9.375 54.035h-34.387v-35.289h34.387z"/>
 <path fill="#CF4D21" d="m234.09 244.71h-53.137c-5.1758 0-9.375 4.1992-9.375 9.375v54.039c0 5.1758 4.1992 9.375 9.375 9.375h53.137c5.1758 0 9.375-4.1992 9.375-9.375v-54.039c0-5.1953-4.1797-9.375-9.375-9.375zm-9.375 54.035h-34.387v-35.289h34.387z"/>
 <path fill="#CF4D21" d="m135.98 244.71h-53.156c-5.1758 0-9.375 4.1992-9.375 9.375v54.039c0 5.1758 4.1992 9.375 9.375 9.375h53.156c5.1758 0 9.375-4.1992 9.375-9.375v-54.039c0-5.1953-4.2031-9.375-9.375-9.375zm-9.375 54.035h-34.406v-35.289h34.406z"/>
 <path fill="#CF4D21" d="m73.445 407.91c0 5.1758 4.1992 9.375 9.375 9.375h53.156c5.1758 0 9.375-4.1992 9.375-9.375v-54.055c0-5.1758-4.1992-9.375-9.375-9.375h-53.156c-5.1758 0-9.375 4.1992-9.375 9.375zm18.75-44.68h34.406v35.305h-34.406z"/>
 <path fill="#CF4D21" d="m171.58 407.91c0 5.1758 4.1992 9.375 9.375 9.375h53.137c5.1758 0 9.375-4.1992 9.375-9.375v-54.055c0-5.1758-4.1992-9.375-9.375-9.375h-53.137c-5.1758 0-9.375 4.1992-9.375 9.375zm18.75-44.68h34.387v35.305h-34.387z"/>
 <path fill="#CF4D21" d="m212.48 452.61v54.039c0 5.1758 4.1992 9.375 9.375 9.375h53.137c5.1758 0 9.375-4.1992 9.375-9.375v-54.039c0-5.1758-4.1992-9.375-9.375-9.375h-53.137c-5.1953 0-9.375 4.1836-9.375 9.375zm18.75 9.375h34.387v35.289h-34.387z"/>
 <path fill="#CF4D21" d="m114.34 452.61v54.039c0 5.1758 4.1992 9.375 9.375 9.375h53.137c5.1758 0 9.375-4.1992 9.375-9.375v-54.039c0-5.1758-4.1992-9.375-9.375-9.375h-53.137c-5.1719 0-9.375 4.1836-9.375 9.375zm18.75 9.375h34.387v35.289h-34.387z"/>
 <path fill="#CF4D21" d="m310.59 452.61v54.039c0 5.1758 4.1992 9.375 9.375 9.375h53.137c5.1758 0 9.375-4.1992 9.375-9.375v-54.039c0-5.1758-4.1992-9.375-9.375-9.375h-53.137c-5.1758 0-9.375 4.1836-9.375 9.375zm18.75 9.375h34.387v35.289h-34.387z"/>
 <path fill="#CF4D21" d="m408.71 452.61v54.039c0 5.1758 4.1992 9.375 9.375 9.375h53.137c5.1758 0 9.375-4.1992 9.375-9.375v-54.039c0-5.1758-4.1992-9.375-9.375-9.375h-53.137c-5.1719 0-9.375 4.1836-9.375 9.375zm18.75 9.375h34.387v35.289h-34.387z"/>
 <path fill="#CF4D21" d="m506.85 452.61v54.039c0 5.1758 4.1992 9.375 9.375 9.375h53.156c5.1758 0 9.375-4.1992 9.375-9.375v-54.039c0-5.1758-4.1992-9.375-9.375-9.375h-53.156c-5.1953 0-9.375 4.1836-9.375 9.375zm18.75 9.375h34.406v35.289h-34.406z"/>
 <path fill="#CF4D21" d="m604.99 452.61v54.039c0 5.1758 4.1992 9.375 9.375 9.375h53.137c5.1758 0 9.375-4.1992 9.375-9.375v-54.039c0-5.1758-4.1992-9.375-9.375-9.375h-53.137c-5.1953 0-9.375 4.1836-9.375 9.375zm18.75 9.375h34.387v35.289h-34.387z"/>
 <path fill="#CF4D21" d="m703.11 452.61v54.039c0 5.1758 4.1992 9.375 9.375 9.375h53.137c5.1758 0 9.375-4.1992 9.375-9.375v-54.039c0-5.1758-4.1992-9.375-9.375-9.375h-53.137c-5.1758 0-9.375 4.1836-9.375 9.375zm18.75 9.375h34.387v35.289h-34.387z"/>
 <path fill="#CF4D21" d="m801.23 452.61v54.039c0 5.1758 4.1992 9.375 9.375 9.375h53.137c5.1758 0 9.375-4.1992 9.375-9.375v-54.039c0-5.1758-4.1992-9.375-9.375-9.375h-53.137c-5.1758 0-9.375 4.1836-9.375 9.375zm18.75 9.375h34.387v35.289h-34.387z"/>
 <path fill="#CF4D21" d="m899.36 452.61v54.039c0 5.1758 4.1992 9.375 9.375 9.375h53.156c5.1758 0 9.375-4.1992 9.375-9.375v-54.039c0-5.1758-4.1992-9.375-9.375-9.375h-53.156c-5.1953 0-9.375 4.1836-9.375 9.375zm18.75 9.375h34.406v35.289h-34.406z"/>
 <path fill="#CF4D21" d="m997.48 452.61v54.039c0 5.1758 4.1992 9.375 9.375 9.375h53.156c5.1758 0 9.375-4.1992 9.375-9.375v-54.039c0-5.1758-4.1992-9.375-9.375-9.375h-53.156c-5.1758 0-9.375 4.1836-9.375 9.375zm18.75 9.375h34.406v35.289h-34.406z"/>
 <path fill="#CF4D21" d="m269.7 407.91c0 5.1758 4.1992 9.375 9.375 9.375h53.137c5.1758 0 9.375-4.1992 9.375-9.375v-54.055c0-5.1758-4.1992-9.375-9.375-9.375h-53.137c-5.1758 0-9.375 4.1992-9.375 9.375zm18.75-44.68h34.387v35.305h-34.387z"/>
 <path fill="#CF4D21" d="m367.84 407.91c0 5.1758 4.1992 9.375 9.375 9.375h53.137c5.1758 0 9.375-4.1992 9.375-9.375v-54.055c0-5.1758-4.1992-9.375-9.375-9.375h-53.137c-5.1758 0-9.375 4.1992-9.375 9.375zm18.75-44.68h34.387v35.305h-34.387z"/>
 <path fill="#CF4D21" d="m465.98 407.91c0 5.1758 4.1992 9.375 9.375 9.375h53.137c5.1758 0 9.375-4.1992 9.375-9.375v-54.055c0-5.1758-4.1992-9.375-9.375-9.375h-53.137c-5.1758 0-9.375 4.1992-9.375 9.375zm18.75-44.68h34.387v35.305h-34.387z"/>
 <path fill="#CF4D21" d="m564.09 407.91c0 5.1758 4.1992 9.375 9.375 9.375h53.137c5.1758 0 9.375-4.1992 9.375-9.375v-54.055c0-5.1758-4.1992-9.375-9.375-9.375h-53.137c-5.1758 0-9.375 4.1992-9.375 9.375zm18.75-44.68h34.387v35.305h-34.387z"/>
 <path fill="#CF4D21" d="m662.21 407.91c0 5.1758 4.1992 9.375 9.375 9.375h53.137c5.1758 0 9.375-4.1992 9.375-9.375v-54.055c0-5.1758-4.1992-9.375-9.375-9.375h-53.137c-5.1758 0-9.375 4.1992-9.375 9.375zm18.75-44.68h34.387v35.305h-34.387z"/>
 <path fill="#CF4D21" d="m724.74 244.71h-53.137c-5.1758 0-9.375 4.1992-9.375 9.375v54.039c0 5.1758 4.1992 9.375 9.375 9.375h53.137c5.1758 0 9.375-4.1992 9.375-9.375v-54.039c0-5.1953-4.1992-9.375-9.375-9.375zm-9.375 54.035h-34.387v-35.289h34.387z"/>
 <path fill="#CF4D21" d="m822.86 244.71h-53.137c-5.1758 0-9.375 4.1992-9.375 9.375v54.039c0 5.1758 4.1992 9.375 9.375 9.375h53.137c5.1758 0 9.375-4.1992 9.375-9.375v-54.039c0-5.1953-4.1836-9.375-9.375-9.375zm-9.375 54.035h-34.387v-35.289h34.387z"/>
 <path fill="#CF4D21" d="m921 244.71h-53.137c-5.1758 0-9.375 4.1992-9.375 9.375v54.039c0 5.1758 4.1992 9.375 9.375 9.375h53.137c5.1758 0 9.375-4.1992 9.375-9.375v-54.039c0-5.1953-4.1992-9.375-9.375-9.375zm-9.375 54.035h-34.387v-35.289h34.387z"/>
 <path fill="#CF4D21" d="m1019.1 244.71h-53.156c-5.1758 0-9.375 4.1992-9.375 9.375v54.039c0 5.1758 4.1992 9.375 9.375 9.375h53.156c5.1758 0 9.375-4.1992 9.375-9.375v-54.039c0-5.1953-4.1992-9.375-9.375-9.375zm-9.375 54.035h-34.406v-35.289h34.406z"/>
 <path fill="#CF4D21" d="m1064.1 317.49h53.156c5.1758 0 9.375-4.1992 9.375-9.375v-54.039c0-5.1758-4.1992-9.375-9.375-9.375h-53.156c-5.1758 0-9.375 4.1992-9.375 9.375v54.039c0 5.1758 4.1992 9.375 9.375 9.375zm9.375-54.035h34.406v35.289h-34.406z"/>
 <path fill="#CF4D21" d="m1054.7 407.91c0 5.1758 4.1992 9.375 9.375 9.375h53.156c5.1758 0 9.375-4.1992 9.375-9.375v-54.055c0-5.1758-4.1992-9.375-9.375-9.375h-53.156c-5.1758 0-9.375 4.1992-9.375 9.375zm18.75-44.68h34.406v35.305h-34.406z"/>
 <path fill="#CF4D21" d="m956.61 407.91c0 5.1758 4.1992 9.375 9.375 9.375h53.156c5.1758 0 9.375-4.1992 9.375-9.375v-54.055c0-5.1758-4.1992-9.375-9.375-9.375h-53.156c-5.1758 0-9.375 4.1992-9.375 9.375zm18.75-44.68h34.406v35.305h-34.406z"/>
 <path fill="#CF4D21" d="m858.49 407.91c0 5.1758 4.1992 9.375 9.375 9.375h53.137c5.1758 0 9.375-4.1992 9.375-9.375v-54.055c0-5.1758-4.1992-9.375-9.375-9.375h-53.137c-5.1758 0-9.375 4.1992-9.375 9.375zm18.75-44.68h34.387v35.305h-34.387z"/>
 <path fill="#CF4D21" d="m760.35 407.91c0 5.1758 4.1992 9.375 9.375 9.375h53.137c5.1758 0 9.375-4.1992 9.375-9.375v-54.055c0-5.1758-4.1992-9.375-9.375-9.375h-53.137c-5.1758 0-9.375 4.1992-9.375 9.375zm18.75-44.68h34.387v35.305h-34.387z"/>
 <path fill="#CF4D21" d="m314.85 616.84h562.2c5.1758 0 9.375-4.1992 9.375-9.375v-47.832c0-5.1758-4.1992-9.375-9.375-9.375l-562.2 0.003906c-5.1758 0-9.375 4.1992-9.375 9.375v47.832c0 5.1914 4.1992 9.3711 9.375 9.3711zm9.375-47.812h543.45v29.082h-543.45z"/>
</svg>
