<?xml version="1.0" encoding="UTF-8"?>
<svg width="1200pt" height="1200pt" version="1.1" viewBox="0 0 1200 1200" xmlns="http://www.w3.org/2000/svg">
 <path fill="#CF4D21" d="m975.74 223.22c-80.766-73.875-184.13-123.42-297.94-135.94-320.39-35.344-591.24 214.78-591.24 527.63 0 129.24 46.125 247.55 122.76 339.61-4.9688-2.9062-9.6094-6.7031-13.875-11.156-89.203-94.781-144.05-222.66-144.05-363.42 0-312.84 271.03-562.97 591.28-527.68 131.11 14.438 248.39 77.672 333.05 170.95z"/>
 <path fill="#CF4D21" d="m209.29 963.1c-1.5469 0-2.9062-0.32812-4.2656-1.2188-5.4844-3.2344-10.781-7.5469-15.75-12.703-94.5-100.27-146.44-231.42-146.44-369.24 0-153.1 65.484-299.68 179.81-402 115.73-103.73 265.22-151.36 421.03-134.26 129.42 14.25 249.74 75.938 338.58 173.68 3.0938 3.4219 2.9062 8.5781-0.32812 11.812-3.2344 3.2344-8.3906 3.4219-11.812 0.1875-82.453-75.422-183.74-121.74-293.16-133.74-150.84-16.641-295.74 29.484-407.68 129.94-110.72 99.281-174.14 241.08-174.14 389.34 0 121.87 42.844 240.52 120.71 334.13 2.7656 3.2344 2.5781 7.875 0 10.969-1.7344 2.0625-4.125 3.0938-6.5625 3.0938zm372.37-905.48c-128.9 0-250.45 46.266-347.68 133.22-110.58 99.047-174 240.84-174 389.11 0 85.359 20.578 168 59.297 241.87-27.094-65.156-41.297-135.42-41.297-206.9 0-153.24 65.484-299.68 179.68-402 115.69-103.69 265.36-151.18 421.03-134.06 49.031 5.2969 96.328 17.484 141.24 35.672-55.359-28.453-115.73-46.781-178.26-53.672-20.062-2.2031-40.125-3.2344-60-3.2344z"/>
 <path fill="#CF4D21" d="m1154.6 560.91c-12.703-131.29-74.062-253.36-172.78-343.87 0 0-0.1875 0-0.1875-0.1875-85.219-78-189.94-125.63-302.9-138.14-155.48-17.156-305.16 30.516-421.03 134.26-114.19 102.28-179.68 248.72-179.68 401.95 0 125.81 44.25 248.39 124.64 345.1 7.2188 8.7656 14.391 16.969 21.609 24.328 15.094 16.125 36.328 24.188 58.266 22.125 21.609-1.875 40.781-13.547 52.781-31.875 49.359-75.609 125.68-127.22 211.74-145.36 5.6719-1.3594 11.297-2.3906 17.156-3.0938 0.51562-6 1.0312-12 1.5469-17.812-5.8125 0.84375-11.484 1.875-17.156 2.9062-92.578 18.328-174.71 73.031-227.68 154.13-9.0938 13.875-23.672 22.641-40.125 24.188-16.453 1.5469-32.578-4.6406-44.25-16.969-6.8438-7.0312-13.734-15.094-20.766-23.484-77.766-93.656-120.61-212.29-120.61-334.18 0-148.26 63.422-290.26 174-389.29 112.12-100.27 256.97-146.39 407.81-129.74 109.22 12 210.52 58.125 292.97 133.74 0 0 0.1875 0 0.1875 0.1875 95.672 87.609 154.97 205.74 167.29 332.9 14.766 150.84-36 300.32-139.22 410.26-11.484 12-27.234 18.188-43.875 16.641-16.453-1.3594-31.219-10.266-40.266-24.188-51.75-79.547-131.81-133.74-222.32-153.1-5.6719-1.2188-11.484-2.25-17.297-3.2344 0.70312 5.8125 1.3594 11.812 1.875 18 5.8125 0.84375 11.484 2.0625 17.156 3.4219 84 19.219 158.06 70.266 206.26 144.19 12 18.516 31.547 30.188 53.297 32.062 2.0625 0.1875 4.125 0.1875 6.1875 0.1875 19.547 0 37.875-7.875 51.422-22.266 106.73-113.44 159.19-267.89 143.95-423.74z"/>
 <path fill="#CF4D21" d="m517.74 281.16c28.875 42.422 17.859 100.17-24.562 129.05s-100.22 17.906-129.1-24.516c-28.828-42.422-17.859-100.22 24.562-129.1 42.422-28.875 100.22-17.859 129.1 24.562"/>
 <path fill="#CF4D21" d="m871.03 281.11c28.875 42.422 17.859 100.22-24.562 129.1-42.422 28.875-100.22 17.906-129.05-24.516-28.875-42.422-17.906-100.22 24.516-129.1 42.422-28.875 100.22-17.906 129.1 24.516"/>
 <path fill="#CF4D21" d="m383.44 541.87c28.875 42.422 17.906 100.22-24.516 129.05-42.422 28.875-100.22 17.906-129.1-24.516-28.875-42.422-17.859-100.22 24.562-129.1 42.422-28.875 100.22-17.859 129.05 24.562"/>
 <path fill="#CF4D21" d="m1005.2 541.87c28.875 42.422 17.859 100.22-24.562 129.1-42.422 28.875-100.22 17.906-129.05-24.516-28.875-42.422-17.906-100.22 24.516-129.1 42.422-28.875 100.22-17.906 129.1 24.516"/>
 <path fill="#CF4D21" d="m693.42 830.39c-0.51562-6-1.0312-12.188-1.7344-18.188-2.25-21.094-4.7812-42.328-8.0625-62.906 0-0.70312 0-1.2188-0.1875-1.7344-1.0312-6.5156-2.0625-12.703-3.0938-18.844-1.875-10.641-3.75-20.766-5.8125-30.188-2.25-11.156-4.7812-21.422-7.3594-30.844-1.2188-4.9688-2.5781-9.6094-3.9375-14.062-0.32812-1.0312-0.70312-2.0625-1.0312-3.0938-2.3906 1.7344-4.9688 3.0938-7.7344 4.2656-2.3906 1.2188-4.9688 2.0625-7.7344 2.9062 1.3594 4.6406 2.9062 9.75 4.125 15.234 0.1875 0.51562 0.1875 0.84375 0.32812 1.3594 2.5781 9.6094 5.1562 20.578 7.5469 32.766 0.51562 2.3906 1.0312 5.1562 1.5469 7.7344 0.84375 3.9375 1.5469 8.0625 2.3906 12.328 1.3594 7.0312 2.5781 14.25 3.75 21.75 0.51562 2.7656 0.84375 5.6719 1.3594 8.5781 2.3906 16.266 4.6406 33.609 6.5156 51.422 0.70312 5.8125 1.3594 11.812 1.875 18 3.4219 36.328 5.4844 74.906 5.6719 113.67 0.32812 70.641-6 124.13-19.031 159.1-7.2188 19.359-20.062 42.516-40.969 42.703h-0.1875c-38.25 0-61.547-75.094-62.25-201.1-0.1875-39.234 1.5469-78.328 4.6406-115.22 0.51562-6 1.0312-12 1.5469-17.812 1.7344-17.484 3.75-34.266 6-50.25 0.32812-2.9062 0.70312-5.6719 1.2188-8.5781 0.32812-2.9062 0.84375-5.6719 1.3594-8.5781 0.51562-3.75 1.2188-7.5469 1.7344-11.156 0.84375-4.9688 1.7344-9.75 2.5781-14.391 0.51562-2.7656 1.0312-5.2969 1.5469-7.875 1.875-9.0938 3.6094-17.484 5.4844-25.359 0.51562-2.3906 1.0312-4.6406 1.5469-6.8438 1.3594-5.8125 2.9062-11.297 4.4531-16.266-2.7656-0.84375-5.4844-1.7344-7.875-2.7656-2.7656-1.0312-5.4844-2.3906-7.875-3.9375-1.7344 5.2969-3.2344 10.781-4.7812 16.781v0.1875c-2.0625 7.7344-3.9375 16.125-5.8125 25.031 0 0.32812 0 0.70312-0.1875 1.0312-1.5469 7.7344-3.0938 15.75-4.6406 24.328-1.5469 9.0938-3.0938 18.703-4.4531 28.641-2.9062 20.578-5.2969 41.812-7.3594 62.906l-1.5469 18c-3.2344 41.156-4.7812 80.766-4.6406 112.27 1.0312 180.19 43.547 218.06 79.359 218.06h0.1875c16.969-0.1875 40.641-9.6094 57.094-53.812 13.734-37.031 20.391-92.578 20.062-165.1-0.14062-30.938-2.0156-69.844-5.625-110.16z"/>
 <path fill="#CF4D21" d="m675.1 748.97h-8.5781l-93.609 0.51562h-8.5781c4.125-28.266 9.2344-54.516 14.906-76.781 1.3594-5.8125 2.9062-11.297 4.4531-16.453 2.3906 1.0312 5.1562 1.875 7.875 2.7656h0.1875c7.7344 2.0625 16.125 3.0938 25.547 3.0938h0.70312c10.641 0 20.25-1.5469 28.641-4.125 0 0 0.1875 0 0.1875-0.1875 2.7656-0.84375 5.2969-1.7344 7.7344-2.9062 1.7344 5.1562 3.2344 10.641 4.7812 16.453 5.8125 22.406 11.109 48.844 15.75 77.625z"/>
 <path fill="#CF4D21" d="m683.48 747.61c-1.0312-6.5156-2.0625-12.703-3.0938-18.844-1.875-10.641-3.75-20.766-5.8125-30.188-2.25-11.156-4.7812-21.422-7.3594-30.844-1.2188-4.9688-2.5781-9.6094-3.9375-14.062-0.32812-1.0312-0.70312-2.0625-1.0312-3.0938-2.3906 1.7344-4.9688 3.0938-7.7344 4.2656-2.3906 1.2188-4.9688 2.0625-7.7344 2.9062 0 0.1875-0.1875 0.1875-0.1875 0.1875 1.3594 4.6406 2.7656 9.6094 4.2656 15.094 0.1875 0.51562 0.1875 0.84375 0.32812 1.3594 2.5781 9.6094 5.1562 20.578 7.5469 32.766 0.51562 2.3906 1.0312 5.1562 1.5469 7.7344 0.84375 3.9375 1.5469 8.0625 2.3906 12.328 0.70312 4.2656 1.5469 8.7656 2.25 13.219l-90.703 0.51562c0.51562-3.75 1.2188-7.5469 1.7344-11.156 0.84375-4.9688 1.7344-9.75 2.5781-14.391 0.51562-2.7656 1.0312-5.2969 1.5469-7.875 1.875-9.0938 3.6094-17.484 5.4844-25.359 0.51562-2.3906 1.2188-4.6406 1.7344-6.8438 1.5469-5.8125 3.0938-11.297 4.4531-16.266h-0.1875c-2.7656-0.84375-5.4844-1.7344-7.875-2.7656-2.7656-1.0312-5.4844-2.3906-7.875-3.9375-1.7344 5.2969-3.2344 10.781-4.7812 16.781v0.1875c-2.0625 7.7344-3.9375 16.125-5.8125 25.031 0 0.32812 0 0.70312-0.1875 1.0312-1.5469 7.7344-3.0938 15.75-4.6406 24.328-1.5469 9.0938-3.0938 18.703-4.4531 28.641-0.32812 2.5781 0.32812 4.9688 2.0625 6.8438 1.5469 1.875 3.9375 2.9062 6.3281 2.9062h7.4062l96.188-0.51562h7.2188c2.5781 0 4.9688-1.2188 6.5156-3.0938 1.3594-1.5469 2.0625-3.2344 2.0625-5.1562-0.046875-0.70312-0.046875-1.2188-0.23438-1.7344z"/>
 <path fill="#CF4D21" d="m650.9 673.03c-1.5469-5.4844-2.9062-10.453-4.2656-15.094-8.3906 2.5781-18 4.125-28.641 4.125h-0.70312c-9.4219 0-17.812-1.0312-25.547-3.0938h-0.1875c-1.5469 4.9688-3.0938 10.453-4.4531 16.266h0.1875c10.641 3.0938 21.094 3.9375 30.188 3.9375h0.70312c9.75 0 21.422-1.2188 33.094-4.7812-0.1875-0.51562-0.1875-0.84375-0.375-1.3594zm-27.938-283.55c-1.5469-1.7344-3.9375-2.7656-6.3281-2.7656-2.7656 0-4.7812 1.0312-6.5156 2.7656-3.6094 4.125-88.266 100.97-87.938 179.29 0.32812 59.297 22.969 87.422 48.844 100.27v0.1875c2.5781 1.2188 5.2969 2.3906 8.25 3.4219 2.5781 1.0312 5.1562 1.875 7.875 2.5781h0.1875c10.641 3.0938 21.094 3.9375 30.188 3.9375h0.70312c9.75 0 21.422-1.2188 33.094-4.7812 2.7656-0.84375 5.2969-1.875 8.0625-3.0938 2.5781-1.0312 5.2969-2.25 7.875-3.6094 24.703-13.547 46.125-42 45.75-99.938-0.5625-78.328-86.438-174.14-90.047-178.26zm39.281 261.1c-2.3906 1.7344-4.9688 3.0938-7.7344 4.2656-2.3906 1.2188-4.9688 2.0625-7.7344 2.9062 0 0.1875-0.1875 0.1875-0.1875 0.1875-8.3906 2.5781-18 4.125-28.641 4.125h-0.70312c-9.4219 0-17.812-1.0312-25.547-3.0938h-0.1875c-2.7656-0.84375-5.4844-1.7344-7.875-2.7656-2.7656-1.0312-5.4844-2.3906-7.875-3.9375-24-13.359-36.328-41.297-36.516-83.484-0.32812-60 57.75-136.26 77.297-160.26 19.875 23.812 78.844 99.422 79.219 159.42 0.23438 40.828-10.922 68.578-33.516 82.641z"/>
</svg>
