<?xml version="1.0" encoding="UTF-8"?>
<svg width="1200pt" height="1200pt" version="1.1" viewBox="0 0 1200 1200" xmlns="http://www.w3.org/2000/svg">
 <path d="m810.09 240.84c-19.836 0.99219-39.715 0.59375-59.496-1.1953-5.5781-4.6484-12.352-1.0625-18.062-2.3906-5.207-0.74609-10.523-0.10547-15.402 1.8594-6.5 1.0508-13.074 1.5391-19.656 1.4609-15.938 0-31.871 1.4609-47.809 1.1953-8.1641 0.61719-16.164 2.6367-23.641 5.9766l-48.207 2.3906-13.281 5.8438-33.863 2.2578c-5.3711 2.3008-10.867 4.293-16.465 5.9766-5.1797 1.1953-11.289 0-15.672 2.2578-12.398 4.4297-25.148 7.8047-38.113 10.09-16.07 5.8438-32.535 10.758-48.738 15.938-26.219 8.9766-51.34 20.871-74.902 35.457l-35.855 21.383c-11.883 11.496-24.922 21.73-38.91 30.543l-53.121 53.121c-7.9492 12.137-16.832 23.637-26.562 34.398-16.387 20.691-29.797 43.578-39.84 67.992-5.3125 13.281-9.8281 27.223-14.078 41.035-2.0117 6.2812-3.1758 12.801-3.4492 19.391-1.0859 9.7344-3.2695 19.312-6.5078 28.555l5.0469 13.281 1.5898 31.34c0.83203 2.707 1.8047 5.3672 2.9219 7.9648 8.5117 19.52 20.227 37.473 34.664 53.121 6.6406 6.5078 6.7734 17.664 16.734 21.383 9.9609 3.7188 10.625 15.406 20.586 17.93h-0.003906c22.773 20.883 46.621 40.562 71.449 58.961l116.47 58.699c7.9688 1.7266 17.797-0.66406 26.559 5.3125 14.477 2.125 26.559 10.359 41.699 12.086 11.555 7.5703 26.559 3.8516 37.98 10.758 3.6562 1.5352 7.5898 2.3047 11.555 2.2578 13.289-0.30469 26.508 1.9961 38.91 6.7734 3.8125 1.2305 7.8398 1.6367 11.82 1.1914 25.23 0 50.465 0.92969 75.695 1.0625 10.629 0.90625 21.305-1.0195 30.945-5.5742 1.1367-0.64453 2.4102-1.0117 3.7188-1.0625 24.988-2.2305 49.461-8.418 72.508-18.328 23.949-7.3828 47.41-16.254 70.254-26.559 38.602-17.07 75.172-38.41 109.03-63.613 36.105-27.27 65.156-62.789 84.727-103.59 7.8789-15.77 14.32-32.215 19.258-49.137 4.1172-18.594 0-36.254 5.9766-53.121h-0.003907c0.40625-1.207 0.40625-2.5117 0-3.7188-7.4375-20.586-1.5938-42.23-6.6406-66.402h0.003906c-4.9688-18.199-11.41-35.965-19.258-53.121-2.7383-7.5391-4.5234-15.391-5.3125-23.371l-14.609-17c-20.031-24.984-47.766-42.633-78.883-50.199-10.359-7.0391-23.375-4.9141-34.129-9.4297-11.246-3.7969-23.059-5.6406-34.93-5.4453-3.9883 0.28516-7.9922-0.16406-11.816-1.3281-13.742-5.0781-28.434-7.0742-43.031-5.8398h-79.68c-13.273-1.3477-26.676 0.56641-39.043 5.5742-3.7422 1.3477-7.7148 1.9375-11.688 1.7266-15.93-0.78516-31.848 1.75-46.746 7.4375-21.383 0-41.035 9.9609-62.551 9.8281-9.1641 0-16.867 7.1719-26.559 7.0391-9.1602-0.14844-18.234 1.7578-26.562 5.5781-5.0195 1.6094-10.266 2.418-15.535 2.3906l-22.312 1.8594-13.281 5.3125c-22.391 2.1914-44.941 2.1914-67.328 0l-12.086-10.492c6.6602-11.594 16.719-20.863 28.816-26.562 16.816-10.312 34.609-18.945 53.121-25.762 12.617-3.8516 24.305-11.023 36.918-13.281 12.617-2.2578 22.844-6.375 34.262-9.5625h0.003906c12.227-5 25.105-8.2188 38.246-9.5586 12.121-5.3633 25.262-8.0391 38.512-7.8359 5.1719-1.3086 10.199-3.1328 15.008-5.4453l50.465-2.7891 13.281-5.1797h94.422c24.305 8.8984 49.934 5.7109 74.902 8.5h-0.003906c3.5078 1.8203 7.2031 3.2461 11.023 4.25 9.1641 1.4609 18.461 1.5938 27.621 3.0547 9.1641 1.4609 14.477 6.5078 22.844 6.375 5.2891 0.125 10.566 0.56641 15.805 1.3281 1.3281-0.03125 2.6445 0.24219 3.8516 0.79688 9.6953 4.168 19.934 6.9414 30.41 8.2305 7.2656 2.4336 14.805 3.9492 22.445 4.5156 26.559 12.352 53.121 21.383 79.68 34.793v0.003906c35.32 18.539 66.25 44.445 90.703 75.961 24.766 31.422 42.84 67.578 53.121 106.24 6.0156 16.082 8.9023 33.164 8.5 50.332 0 17.266 0 34.527-0.66406 50.863-2.6289 4.9414-4.5938 10.211-5.8438 15.672-1.2656 13.379-5.3867 26.328-12.086 37.98-7.1484 15.699-16.059 30.535-26.559 44.223-12.219 13.281-22.047 29.48-35.59 42.496-16.336 15.672-36.121 26.559-52.324 42.496-8.3125 4.1719-15.965 9.5391-22.711 15.938-5.3125 3.9844-11.023 7.1719-16.734 10.625-16.543 8.2656-32.512 17.625-47.809 28.02-3.3906 2.0352-7 3.6836-10.754 4.9141-2.168 1.5156-4.4805 2.8047-6.9062 3.8516-20.852 4.9141-38.246 18.062-58.301 24.57l-53.121 17.266v-0.003907c-11.453 3.0586-22.715 6.7812-33.73 11.156-11.156 5.1797-23.773 2.3906-34.527 8.7656h-0.003906c-3.5859 1.6719-7.4648 2.6211-11.418 2.7891-10.527 0.83203-20.918 2.9297-30.945 6.2422-8.9297 2.5234-18.234 3.4648-27.488 2.7891-7.7578 0.75391-15.34 2.7695-22.445 5.9727-53.121 3.1875-106.24 2.125-160.69 0l-14.477-5.5781-39.84-1.9922v0.003906c-5.9297-2.3477-12.004-4.3008-18.191-5.8438-11.809-1.2305-23.492-3.4531-34.926-6.6406-12.219-4.3828-25.629-5.5781-38.113-9.9609-12.484-4.3828-22.711-6.6406-33.863-10.492-14.875-5.1797-29.348-11.289-44.754-15.406s-25.762-13.281-39.84-15.938l-0.003906 0.003906c-21.641-9.9531-42.582-21.355-62.684-34.129-9.4297-7.1719-19.922-13.281-30.012-19.258-19.375-11.461-37.375-25.094-53.652-40.637-4.3164-5.1016-9.3203-9.5703-14.875-13.281-12.508-7.5547-23.461-17.426-32.27-29.082-17.211-18.281-32.023-38.676-44.094-60.691-1.7969-3.5195-3.793-6.9336-5.9727-10.227-2.7891-4.5156-7.7031-8.7656-8.1016-13.281-0.92969-12.219-9.6953-21.91-10.094-34.262-0.79688-6.6602-2.1719-13.234-4.1172-19.656 6.1094-18.594 2.9219-38.777 5.7109-59.363l15.008-43.824c0.67188-2.5156 1.4688-4.9961 2.3906-7.4336 3.8516-8.3672 11.555-14.078 14.609-23.375h-0.003906c3.457-8.4688 7.918-16.496 13.281-23.906 4.6797-7.9414 9.8672-15.57 15.539-22.84 7.1875-11.07 15.129-21.633 23.77-31.605 10.758-9.8281 20.188-21.117 30.809-31.074l0.003907-0.003906c9.0664-9.6602 19.277-18.18 30.41-25.363 5.4805-3.957 10.594-8.4023 15.273-13.281 5.7148-5.5625 12.145-10.34 19.121-14.211 11.156-4.9141 18.062-15.938 30.145-18.859l0.003906 0.003906c35.453-20.473 72.648-37.762 111.15-51.66 14.609-5.5781 31.074-6.5078 45.551-12.484h0.003906c11.488-4.1445 23.645-6.125 35.855-5.8438l15.273-7.3047 29.48-2.5234 11.422-5.3125c4.6484 0 9.9609 0 15.273-1.0625h-0.003906c13.434 0.38672 26.828-1.5938 39.578-5.8438 5.082-1.4727 10.391-2.0156 15.668-1.5938l43.16-2.1211 17.398-6.2422h133.86l13.945 5.9766 28.02 1.5938 0.003906-0.003906c12.52 3.1016 24.773 7.1875 36.652 12.219 4.7812 2.3906-1.3281-0.92969 0.79687 3.8516z" fill="#ff751f"/>
</svg>
