<?xml version="1.0" encoding="UTF-8"?>
<svg width="1200pt" height="1200pt" version="1.1" viewBox="0 0 1200 1200" xmlns="http://www.w3.org/2000/svg">
 <path d="m947.96 174.15-4.7266 1.8906-34.828 0.67578v-0.003906c-4.8633-0.55859-9.7891 0.14062-14.309 2.0273l-16.605 1.2148c-1.2266 0.71484-2.543 1.2578-3.9141 1.6211-4.3203 0-8.7734 0-13.5 1.3516v-0.003906c-3.5977 1.3477-7.3711 2.168-11.203 2.4297-2.8945-0.046874-5.7422 0.69922-8.2383 2.1602-4.5312-0.011719-9.0547 0.44141-13.5 1.3516-3.6719 1.1289-7.4141 2.0312-11.203 2.6992-3.2383 0-6.3438 2.2969-9.7188 2.6992-3.3281 0.61328-6.5859 1.5625-9.7227 2.8359-4.1836 1.4844-8.3711 2.2969-12.555 3.375-4.1836 1.2305-8.4805 2.043-12.824 2.4297-0.92969-0.23828-1.9023-0.23828-2.832 0-4.5898 3.6445-9.043 1.4844-13.5 0-2.0859-0.47656-4.2109-0.75-6.3477-0.80859l-12.555-6.3438c0.80859-3.5117 5.3984-0.94531 6.4805-3.9141v-2.5664c0-0.40625-2.5664-1.3516-3.6445-2.2969-1.5312-1.3672-2.5352-3.2305-2.8359-5.2656-0.058594-2.7695 1.4609-5.332 3.9141-6.6133 3.0586-0.40625 6.082-1.0391 9.0469-1.8906 2.6641-1.168 5.4844-1.9414 8.3711-2.2969 0.93359 0.17969 1.8984 0.17969 2.832 0 3.7148-2.2734 7.8477-3.7891 12.152-4.4531 4.9961 0 9.043-3.5117 13.5-3.5117 4.4531 0 8.1016-2.9688 12.691-3.1055l-0.003906 0.003906c2.8438-0.55469 5.6445-1.3203 8.3711-2.2969 2.8359 0 5.8047 0 8.7734-0.80859 4.1289-1.3516 8.3789-2.3008 12.691-2.8359 5.9727-2.5898 12.391-4.0117 18.898-4.1836l3.375-1.7578c6.0742-1.3516 12.691 0 18.496-3.1055l22.004-0.80859 4.7266-1.8906c29.023 0 58.184-1.6211 88.426 0l4.9961 1.7539h11.07-0.003906c1.4258-0.27344 2.8906-0.27344 4.3203 0 5.0859 1.9141 10.496 2.832 15.93 2.7031 5.2969 2.4023 10.754 4.4336 16.332 6.0742 4.2773 0.82422 8.4453 2.1367 12.422 3.9141 2.6992 1.0781 5.6719 1.6211 8.2344 2.8359 9.3008 2.9023 17.992 7.4805 25.648 13.5 4.7344 2.082 9.2539 4.6133 13.5 7.5586 1.1445 0.90625 2.418 1.6367 3.7812 2.1602 1.4609 0.45312 2.9492 0.81641 4.457 1.082 2.0234 1.7539 4.1836 3.7812 6.4805 5.5352 2.2969 1.7539 4.8594 3.1055 7.2891 4.7266v-0.003906c5.5781 3.0195 10.75 6.7383 15.387 11.07 0.98438 1.1016 2.1211 2.0586 3.375 2.8359 8.707 6.2891 16.637 13.582 23.625 21.734 2.4375 3.0117 4.6914 6.168 6.75 9.4492 7.9023 10.422 14.27 21.922 18.902 34.156 3.6562 7.8984 6.2461 16.254 7.6914 24.84 0 3.375 2.8359 6.2109 2.6992 9.7188-0.13672 3.5117 0 6.75 0 10.262l0.003906-0.003906c-0.19141 0.9375-0.19141 1.9023 0 2.8359 1.9883 5.0117 2.6836 10.445 2.0234 15.797v19.035-0.003906c0.35547 1.9219 0.35547 3.8867 0 5.8086-1.7539 7.4297-2.6602 15.039-2.6992 22.68-0.66016 1.0938-1.1602 2.2734-1.4844 3.5078 0 3.375 0 6.75-1.2148 10.125s-2.4297 5.2656-2.2969 8.3711c-0.53516 5.4609-1.668 10.848-3.375 16.062-2.1172 3.8711-2.9688 8.3125-2.4297 12.691 0.10937 0.94141 0.10937 1.8945 0 2.8359-1.6211 2.4297-3.375 4.7266-4.8594 7.1562v-0.003906c-0.17969 0.42969-0.17969 0.91406-0.003906 1.3438 0.17969 0.42969 0.51953 0.77344 0.94922 0.95312 4.5898-2.1602 6.75-7.0195 10.801-9.5859 0.37891-0.19141 0.83203-0.19141 1.2148 0 0.35547 0.33203 0.55469 0.79688 0.55469 1.2812 0 0.48828-0.19922 0.95313-0.55469 1.2852-0.67578 1.2148-1.6211 2.2969-2.4297 3.5117l-2.2969 3.375 4.3203 2.1602v-0.003906c-0.70312 2.1289-1.5625 4.207-2.5664 6.2109-2.7695 4.0625-4.6562 8.6602-5.5352 13.5-0.57422 2.3516-1.6328 4.5586-3.1016 6.4805-1.0859 1.5859-2.3047 3.0781-3.6484 4.4531l-7.0195 7.4258c-2.1641 1.9141-4.0312 4.1445-5.5352 6.6133-1.4844 3.2383-4.1836 5.3984-6.2109 8.7734l-0.94531 7.9648 0.003906 0.003907c-4.125 6.5977-8.9219 12.75-14.312 18.359-6.3398 7.3203-12.031 15.18-17.008 23.488-0.82422 1.7148-1.8203 3.3438-2.9688 4.8594-4.0508 3.6445-6.2109 8.7734-9.8555 12.555s-6.3438 9.7188-10.801 13.5c-4.4531 3.7812-7.2891 7.8281-10.934 11.746-3.0195 3.1094-5.7305 6.5-8.1016 10.125-3.8633 6.1875-8.3906 11.938-13.5 17.145-2.4766 2.3086-4.5742 5-6.2109 7.9648-1.2188 2.1211-2.7695 4.0352-4.5898 5.6719-5.2656 5.1289-8.7734 11.609-13.5 17.012v-0.003906c-2.0469 3.8906-4.7383 7.4062-7.9648 10.395-3.3438 3.5039-6.3711 7.3008-9.043 11.34-2.4297 4.1836-6.6133 7.1562-9.4492 11.07-4.4531 6.3438-10.125 11.746-15.121 18.09l-4.7266 8.7734c-2.5664 3.375-6.4805 5.9414-7.9648 10.262h0.003906c-0.63281 1.3203-1.5 2.5117-2.5664 3.5117-6.4336 6.0938-12.473 12.586-18.09 19.438-5.2227 6.3945-10.812 12.477-16.738 18.227-3.0469 3.1172-5.8047 6.5078-8.2383 10.125-1.9844 2.7852-4.2969 5.3203-6.8828 7.5586l-25.785 25.785c-1.2422 1.4727-2.6992 2.7461-4.3203 3.7812-5.9727 4.1328-11.453 8.9336-16.336 14.309-3.7812 3.1055-5.8047 7.6953-9.7188 10.664s-7.4258 6.2109-11.07 9.4492c-3.6445 3.2383-4.5898 5.1289-7.1562 7.2891-2.5664 2.1602-7.1562 4.8594-10.664 7.4258-3.5117 2.5664-4.8594 6.2109-8.5039 7.8281v0.003906c-2.8672 1.832-5.5352 3.957-7.9648 6.3438-2.5234 1.4102-4.918 3.0352-7.1562 4.8594-4.2891 3.7695-8.7969 7.2852-13.5 10.531-4.4531 3.6445-9.4492 6.8867-13.5 10.262v-0.003906c-2.0664 1.2656-4.0508 2.6641-5.9375 4.1875-3.2461 2.9453-6.9336 5.3633-10.934 7.1523-4.6875 2.6289-9.1953 5.5625-13.5 8.7773-13.5 8.5039-27 17.145-41.176 24.301-7.2891 3.6445-13.5 8.5039-21.465 12.148-10.668 5.6797-21.617 10.816-32.805 15.391-5.3633 2.207-10.594 4.7344-15.66 7.5586-6.2734 3.6055-12.93 6.5039-19.844 8.6406h-1.3516c-3.5977 2.4766-7.6289 4.2617-11.879 5.2656-4.3203 0-7.9648 3.5117-12.285 4.0508v-0.003906c-2.6133 1.2852-5.4609 2.0195-8.3711 2.1602-2.8359 0-5.3984 2.1602-8.2344 2.5664-2.8359 0.40625-7.9648 3.6445-12.555 3.375-1.4336 0.14844-2.8125 0.60938-4.0508 1.3477-6.9219 3.4492-14.348 5.7734-22.004 6.8867-3.5117 0-6.0742 3.2383-9.5859 2.9688-2.9297 0.0625-5.7852 0.94922-8.2344 2.5664-4.0508 0-7.2891 2.8359-11.203 2.9688-3.9141 0.13672-7.4258 2.2969-11.203 2.8359-3.7812 0.53906-7.4258 2.2969-11.203 2.9688h-0.003906c-3.4102 0.17969-6.7539 1.0039-9.8555 2.4297-0.94141 0.14062-1.8945 0.14062-2.8359 0-4.8594 0.027343-9.6836 0.80078-14.309 2.2969-3.7812 2.0234-8.7734 0-12.555 3.2383-0.92187 0.30078-1.9141 0.30078-2.8359 0-6.6836 0.86719-13.309 2.1328-19.844 3.7812-2.0234 1.8906-4.7266 0-6.75 0.80859-2.2773 0.78906-4.6289 1.332-7.0195 1.6211-3.2383 0-6.4805 1.8906-9.7188 2.4297-3.2383 0.53906-5.8047 0-8.7734 0h-0.003906c-2.5195 0.55859-5 1.2812-7.4258 2.1602l-11.07 0.67578h0.003906c-1.4297-0.27734-2.8945-0.27734-4.3203 0-4.543 1.8164-9.4297 2.6016-14.312 2.293-4.5898-0.28906-9.1914 0.40234-13.5 2.0273-1.9141 0.37891-3.8867 0.37891-5.8047 0-8.7734 0-17.414 0.94531-26.191 0h0.003906c-4.3594-0.39062-8.7461 0.40234-12.691 2.293-33.211 0.94531-66.285 0.94531-99.09 0l-6.0742 1.6211-29.836-0.80859-4.7266-2.0234 0.003906-0.003906c-6.3086 0.19531-12.594-0.85938-18.496-3.1055-5.8086-0.33984-11.539-1.5234-17.008-3.5078-4.9961-1.6211-9.9883-3.7812-14.984-5.2656-2.7969-0.82422-5.5078-1.9062-8.1016-3.2383-1.7539-0.80859-3.375-1.8906-5.1289-2.6992-5.8047-2.2969-11.746-4.4531-17.414-7.0195-5.6719-2.5664-9.8555-6.0742-14.984-8.7734v-0.003906c-8.1875-4.1562-15.699-9.5273-22.277-15.93l-18.629-18.496c-5.0742-5.875-9.8516-12.004-14.309-18.359-2.4805-3.5898-4.5625-7.4375-6.2109-11.473-2.8359-5.6719-5.5352-11.34-8.2344-17.012-2.4688-4.4375-4.1172-9.2852-4.8594-14.309-0.82422-3.2617-1.8633-6.4609-3.1055-9.5859-1.1484-3.6719-2.0508-7.4141-2.6992-11.203-0.48438-2.0586-1.2109-4.0547-2.1602-5.9414-0.12891-5.4688-1.082-10.883-2.8359-16.066-0.39844-1.9141-0.39844-3.8867 0-5.8047v-39.285c3.7812-4.9961 1.2148-11.746 4.8594-16.605l1.0781-12.555c3.2383-8.2344 5.3984-16.066 7.8281-23.895l0.003906 0.003907c4.7539-16.203 10.898-31.969 18.359-47.117 3.6445-7.4258 7.5586-14.715 11.07-22.141v0.003906c6.2617-12.539 13.156-24.75 20.656-36.586 7.2891-12.016 14.578-24.031 22.816-35.371 1.0781-3.9141 4.5898-6.2109 6.4805-9.5859l-0.003906 0.003906c2.125-3.8125 4.5156-7.4648 7.1562-10.938 2.2969-3.1055 5.1289-5.9414 7.5586-8.9102 2.4297-2.9688 5.6719-7.8281 8.6406-11.609 4.7266-6.2109 9.9883-11.879 14.852-17.953h-0.003907c4.6875-6.1914 9.7344-12.098 15.121-17.688 5.8047-7.7852 12.121-15.184 18.898-22.137 9.3008-11.25 19.215-21.977 29.703-32.129 10.262-10.395 20.52-20.789 30.914-30.914l32.398-31.59v-0.003906c2.6953-2.7852 5.6836-5.2734 8.9102-7.4219 3.0938-2.3125 5.9844-4.8906 8.6406-7.6953 5.707-5.9414 11.895-11.406 18.492-16.336 2.6367-2.1133 5.1172-4.4141 7.4258-6.8828 4.582-5.1445 9.7969-9.6797 15.527-13.5 1.2227-0.76562 2.3164-1.7227 3.2383-2.8359 6.6133-7.1562 15.254-12.016 22.004-19.035 6.0156-3.9883 11.664-8.5078 16.875-13.5 4.7266-4.1836 9.9883-7.5586 15.121-11.34 5.1289-3.7812 6.8867-5.3984 10.262-8.1016 3.375-2.6992 8.6406-6.3438 12.555-9.8555l-0.003906 0.003906c3.6953-3.1094 7.5742-5.9961 11.609-8.6406 7.1562-4.9961 13.5-10.262 21.195-15.254 7.6953-4.9961 14.309-9.9883 21.465-14.984v-0.003906c7.6406-5.9258 15.824-11.125 24.438-15.523 4.4531-2.0234 7.5586-6.0742 12.148-7.9648 4.0664-1.7656 7.8438-4.1289 11.203-7.0195 2.8086-1.9023 5.793-3.5312 8.9102-4.8594 13.5-7.5586 28.621-14.176 42.93-21.465 3.2383-0.91797 6.3984-2.0938 9.4492-3.5117 2.4258-1.5781 5.0625-2.8047 7.832-3.6445 2.9453-1.6602 6.1328-2.8477 9.4492-3.5078 11.047-4.793 22.359-8.9375 33.887-12.422 3.2383-2.4297 7.4258-1.8906 10.934-3.6445 3.5117-1.7539 6.75-1.2148 9.7188-2.4297 3.7227-1.1445 7.582-1.7812 11.477-1.8906 1.3516-0.16016 2.6719-0.52344 3.9141-1.0781 2.6875-1.1406 5.6719-1.375 8.5039-0.67578 3.6719 0.94141 7.2773 2.1133 10.801 3.5078-2.9688 2.4297-6.6133 1.7539-9.5859 3.7812-2.5742 1.3555-5.3555 2.2695-8.2344 2.6992-3.2383 0.80859-6.6133 1.3516-9.8555 2.0234l1.6211 5.1289c-1.7539 2.8359-4.5898 2.0234-6.6133 3.1055l-6.0742 3.375-0.003907 0.003906c-1.1406 1.6602-2.4531 3.1992-3.9141 4.5898-1.9648 1.4258-4.0938 2.6016-6.3438 3.5078-3.1836 1.2852-5.9453 3.4375-7.9648 6.2109-2.9688 3.8438-6.875 6.8633-11.34 8.7734-3.9141 1.8906-7.1562 4.9961-11.07 6.8867-6.9023 4.4883-14.402 7.9883-22.273 10.395-5.793 2.4102-11.352 5.3477-16.605 8.7734-2.3398 1.6992-4.8242 3.1914-7.4258 4.457l-20.789 10.531c-2.5664 2.6992-3.7812 6.6133-7.9648 7.9648-2.332 0.69141-4.5273 1.7891-6.4805 3.2383-6.8867 5.3984-15.254 8.5039-22.543 13.5-7.2891 4.9961-17.281 10.801-25.379 16.875-12.691 9.5859-27 17.953-38.473 28.621-11.34 7.4258-21.059 17.012-32.535 24.434h-0.003907c-1.2148 0.82812-2.3477 1.7812-3.375 2.8359-4.4922 4.418-9.3203 8.4805-14.445 12.148-4.2422 3.9492-8.7539 7.6055-13.5 10.934-1.1992 0.80078-2.2891 1.7539-3.2383 2.8359-7.0195 6.6133-13.5 13.5-21.734 19.305-8.2344 5.8047-13.5 12.691-20.113 19.035h-0.003906c-4.8359 5.4219-10.324 10.227-16.332 14.309-1.2617 0.73828-2.2891 1.8125-2.9727 3.1055-3.6953 6.1445-8.2383 11.734-13.5 16.605-3.6445 3.9141-7.5586 7.5586-11.34 11.34l-45.898 45.09c-3.5664 3.293-6.8203 6.9062-9.7188 10.801-3.1445 4.3125-6.668 8.332-10.531 12.012-3.375 3.5117-6.8867 6.8867-10.125 10.531-4.7148 4.1719-8.6484 9.1562-11.609 14.715-3.1055 2.4297-4.1836 6.3438-7.5586 8.7734-2.332 2.3711-4.5 4.8945-6.4805 7.5625-5.3906 5.5625-10.188 11.668-14.312 18.223-1.9922 3.3164-4.2969 6.4375-6.8828 9.3164-1.5078 1.8984-2.9023 3.8828-4.1836 5.9414-2.9688 3.7812-5.2656 8.2344-8.1016 12.016v-0.003906c-3.082 3.0938-5.5938 6.7031-7.4258 10.668-8.207 9.5586-15.566 19.812-22.004 30.645-2.5195 3.5469-4.4766 7.4648-5.8047 11.609-0.77734 2.8086-1.9609 5.4922-3.5117 7.9648-4.5898 6.3438-7.4258 13.5-11.609 19.98v-0.003906c-4.9805 8.2891-9.4883 16.852-13.5 25.652-3.7812 7.2891-6.3438 15.121-9.8555 22.543-3.5117 7.4258-4.9961 14.578-7.8281 21.734-0.94531 2.1602-1.4844 4.5898-2.1602 6.8867-2 4.8906-3.3594 10.016-4.0508 15.254 0 4.3203-2.9688 8.1016-2.8359 12.691 0.13672 4.5898 0 7.8281 0 12.285l-2.1602 5.3984v35.504l1.7578 4.9961c0.09375 4.2539 0.5 8.4961 1.2148 12.688 1.3516 5.6719 3.375 11.07 5.2656 16.469v0.003906c1.7031 5.3945 4.0625 10.562 7.0195 15.391 2.8359 4.4531 6.3438 8.6406 9.043 13.5 1.5664 3.0156 3.8945 5.5781 6.75 7.4219 1.1016 0.88281 2.0586 1.9297 2.8359 3.1055 5.3164 6.9805 11.695 13.082 18.898 18.09 1.9609 1.4375 3.8086 3.0156 5.5352 4.7266l5.3984 4.5898c4.0508 2.1602 7.8281 4.3203 11.746 6.2109v-0.003906c3.3711 1.8594 6.9531 3.3086 10.668 4.3203 4.0234 1.2852 7.9102 2.957 11.609 4.9961h13.637c4.8594 2.1602 10.125 2.9688 14.984 5.3984 5.9414 0 11.203 3.1055 17.012 3.2383h16.336l5.1289 1.7539-0.003906 0.003906c7.8906-0.22656 15.77 0.77344 23.355 2.9688l5.2656-1.3516-0.003907 0.003906c0.83984 0.49609 1.75 0.85938 2.7031 1.0781l15.523 0.67578 6.3438-2.4297h8.6406l5.3984 2.0234 6.8867-2.1602v0.003906c2.293-0.13281 4.5938-0.13281 6.8867 0 2.418 0.49609 4.8047 1.1289 7.1523 1.8867l5.3984-2.1602 24.703-0.67578 4.5898-2.0234h24.574c3.4453-1.6602 7.2461-2.4453 11.07-2.293 2.8828-0.14063 5.6953-0.92578 8.2344-2.2969l18.227-0.94531 5.3984-2.2969h6.6133v0.003906c3.3828 0.054688 6.7344-0.58984 9.8555-1.8906 1.8164-0.66016 3.7383-0.98047 5.6719-0.94531 2.418 0.027344 4.8164-0.48047 7.0195-1.4844 0.78906-0.58984 1.7188-0.96094 2.6992-1.082 7.4258 0 13.5-3.375 21.465-3.5117v0.003906c0.93359 0.21484 1.9023 0.21484 2.8359 0 5.6719-3.1055 12.285-2.2969 18.09-5.1289 6.3438 0 12.016-3.7812 18.359-4.1836 4.1836-2.6992 9.7188-1.0781 13.5-3.9141 3.7812-2.8359 9.043-3.6445 13.5-4.0508 7.9648-3.5117 17.012-3.7812 24.703-7.9648v-0.003907c9.8594-1.8789 19.496-4.7734 28.754-8.6406 4.1836-1.2148 8.7734 0 12.555-3.375 4.7109-1.0977 9.25-2.8203 13.5-5.1289 1.7188-0.90625 3.6016-1.457 5.5352-1.6211 1.4766-0.007812 2.9414-0.28125 4.3203-0.80859 7.2891-3.7812 15.523-5.3984 22.68-9.4492 5.9648-3.1836 12.258-5.7188 18.766-7.5586 3.6758-1.1797 7.2422-2.668 10.664-4.457 3.375-1.7539 7.5586-1.7539 10.395-4.8594 1.0977-0.99219 2.457-1.6484 3.9141-1.8906 5.4531-1.9492 10.734-4.3398 15.797-7.1562 6.7539-4.7188 13.996-8.6992 21.598-11.879 2.5664-1.2148 5.1289-2.6992 7.6953-4.0508 2.5664-1.3516 2.9688-1.0781 3.7812-2.0234 5.3164-4.9844 11.488-8.9609 18.223-11.746 6.8828-3.625 13.238-8.1641 18.902-13.5 4.8594-2.2969 8.6406-6.0742 13.5-8.6406s9.8555-6.0742 14.852-9.043h-0.003907c1.2422-0.75391 2.418-1.6094 3.5117-2.5664 2.5664-2.2969 4.8594-4.8594 7.5586-6.8867 2.6992-2.0234 5.2656-2.5664 7.4258-4.4531 3.6602-2.3789 7.0938-5.0938 10.258-8.0977 2.5938-3.2266 5.9258-5.7734 9.7227-7.4258 2.125-1.2109 4.0039-2.8164 5.5352-4.7227 2.3438-2.4375 5.0273-4.5312 7.9648-6.2109 2.4453-1.5898 4.6289-3.5508 6.4805-5.8047 1.2031-1.4844 2.2891-3.0664 3.2383-4.7266 4.7266-1.7539 7.0195-6.8867 11.609-8.5039 4.5898-1.6211 6.0742-4.7266 9.5859-6.4805 2.8633-1.8281 5.457-4.0586 7.6953-6.6133 4.7148-4.8008 9.7188-9.3086 14.984-13.5 9.1914-7.4922 17.809-15.66 25.785-24.438 3.332-2.832 6.1602-6.2109 8.3672-9.9883 1.1133-1.6055 2.4297-3.0586 3.918-4.3203 2.5664-2.8359 6.2109-4.4531 8.3711-7.9648h-0.003906c2.3789-3.082 5.0469-5.9297 7.9648-8.5039l7.0195-7.4258 8.1016-8.5039c1.1055-0.96875 2.1016-2.0547 2.9688-3.2422 4.332-6.3828 9.3594-12.27 14.984-17.547 3.2852-2.8984 6.0703-6.3203 8.2383-10.125 1.0156-1.6758 2.2891-3.1797 3.7773-4.457l13.5-14.715c2.5664-5.8047 8.6406-9.1797 10.934-15.254 0.80859-2.1602 3.2383-3.6445 4.8594-5.3984 1.6211-1.7539 6.0742-6.3438 8.9102-9.7188l0.003906-0.003906c2.4727-2.9688 4.7695-6.0781 6.8828-9.3125 5.5352-8.5039 12.285-16.066 17.281-25.109 2.2969-4.1836 6.8867-6.8867 8.5039-11.746 5.5352-6.75 9.043-14.852 14.309-21.871 5.2656-7.0195 8.5039-15.254 13.5-22.273 6.2109-12.016 12.555-24.031 18.359-36.316 2.5195-4.2773 4.6016-8.8008 6.2109-13.5 2.1172-3.3906 3.1523-7.3438 2.9688-11.34l4.7266-6.75c1.25-5.2383 2.875-10.383 4.8594-15.387 3.5117-7.4258 5.5352-15.523 9.7188-22.543v-0.003906c0.45312-3.3359 1.1758-6.6328 2.1602-9.8555 2.9688-6.0742 3.5117-13.5 6.3438-19.168h0.003907c0.54297-1.375 0.81641-2.8438 0.80859-4.3203 1.2109-6.6289 3.0195-13.137 5.3984-19.441l1.7578-15.387c1.0547-2.9336 1.8242-5.9648 2.293-9.0469v-14.578-24.84c-0.45703-7.2461-1.5898-14.43-3.375-21.465-0.14062-0.95312-0.46094-1.8711-0.94531-2.6992-2.5664-4.7266-4.0508-9.8555-6.2109-14.578l0.003907-0.003906c-6.1055-13.766-14.605-26.336-25.109-37.125l-6.8867-7.1562v0.003906c-3.7734-2.3281-7.4258-4.8516-10.934-7.5625-5.4414-4.8672-11.527-8.9531-18.09-12.148-8.1016-4.3203-16.469-8.2344-24.703-12.418l-0.003906-0.003906c-9.9375-4.5312-20.23-8.2344-30.777-11.066-4.3359-1.6602-8.8789-2.707-13.5-3.1055-4.3203 0-8.2344-2.8359-12.691-2.6992v-0.003906c-3.8672 0.21094-7.7422 0.21094-11.609 0-0.98438 0.003906-1.957-0.22656-2.8359-0.67188-2.4297-1.4844-4.5898 0-6.75 0l-6.6133-1.8906z" fill="#ff751f"/>
</svg>
