<?xml version="1.0" encoding="UTF-8"?>
<svg width="1200pt" height="1200pt" version="1.1" viewBox="0 0 1200 1200" xmlns="http://www.w3.org/2000/svg">
 <path d="m163.78 31.453h764.34c72.797 0 132.32 59.578 132.32 132.32v51.281h-1029v-51.281c0-72.75 59.578-132.32 132.32-132.32zm768.79 665.11c130.36 0 235.97 105.66 235.97 235.97 0 130.31-105.66 235.97-235.97 235.97s-235.97-105.66-235.97-235.97c-0.046874-130.31 105.61-235.97 235.97-235.97zm-105.33 126.84-77.906 97.359c-5.6719 7.125-5.3906 17.109 0.23437 23.859l77.672 97.078c6.5156 8.1562 18.375 9.4688 26.484 2.9531 8.1562-6.5156 9.4688-18.375 2.9531-26.531l-68.484-85.594 68.484-85.594c6.5156-8.1562 5.1562-20.016-2.9531-26.484-8.1094-6.5156-19.969-5.1562-26.484 2.9531zm120.19 6.0469-65.672 194.06c-3.3281 9.8906 1.9688 20.625 11.859 24 9.8906 3.3281 20.625-1.9688 24-11.859l65.625-194.06c3.3281-9.8906-1.9219-20.625-11.859-24-9.8438-3.3281-20.578 1.9688-23.953 11.859zm60.938 17.484 68.484 85.594-68.484 85.594c-6.5156 8.1562-5.1562 20.016 2.9531 26.531 8.1562 6.5156 20.016 5.1562 26.531-2.9531l77.672-97.078c5.625-6.75 5.9062-16.734 0.23438-23.859l-77.906-97.359c-6.5156-8.1562-18.375-9.4688-26.531-2.9531-8.1094 6.5156-9.4688 18.375-2.9531 26.484zm52.125-593.95h-1029v675.19c0 72.797 59.578 132.32 132.32 132.32h526.55c-20.203-38.203-31.688-81.75-31.688-127.97 0-25.828 3.6094-50.812 10.266-74.531l-189.89 0.046875-95.906 90.375c-4.8281 4.5469-11.719 5.4375-17.531 2.2969s-8.8125-9.375-7.6875-15.891l13.688-76.734h-8.1562c-87.938 0-159.84-71.953-159.84-159.84l0.046875-190.08c0-87.938 71.953-159.84 159.84-159.84h364.97c87.938 0 159.84 71.953 159.84 159.84v154.08c14.391-2.3438 29.156-3.5625 44.203-3.5625 46.219 0 89.766 11.484 127.97 31.688zm-138.05-144.24c-16.406 0-29.719 13.312-29.719 29.719s13.312 29.719 29.719 29.719 29.719-13.312 29.719-29.719-13.312-29.719-29.719-29.719zm-124.26 0c-16.406 0-29.719 13.312-29.719 29.719s13.312 29.719 29.719 29.719 29.719-13.312 29.719-29.719-13.312-29.719-29.719-29.719zm-124.22 0c-16.406 0-29.719 13.312-29.719 29.719s13.312 29.719 29.719 29.719 29.719-13.312 29.719-29.719-13.312-29.719-29.719-29.719zm-334.6 395.44c-10.453 0-18.938-8.4844-18.938-18.938s8.4844-18.938 18.938-18.938h411.89c10.453 0 18.938 8.4844 18.938 18.938s-8.4844 18.938-18.938 18.938zm0 116.11c-10.453 0-18.938-8.4844-18.938-18.938s8.4844-18.938 18.938-18.938h411.89c10.453 0 18.938 8.4844 18.938 18.938s-8.4844 18.938-18.938 18.938zm0 116.16h402c8.8125-8.625 18.234-16.641 28.172-24-2.2031-8.0156-9.5625-13.922-18.281-13.922h-411.89c-10.453 0-18.938 8.4844-18.938 18.938 0 10.5 8.4375 18.984 18.938 18.984z" fill-rule="evenodd"/>
</svg>
