<?xml version="1.0" encoding="UTF-8"?>
<svg width="1200pt" height="1200pt" version="1.1" viewBox="0 0 1200 1200" xmlns="http://www.w3.org/2000/svg">
 <path d="m534.43 215.19c-55.414 27.988-45.547 93.895-45.332 127.56 0.41406 67.426 7.3477 134.72 3.0547 191.67 5.8398 73.387 25.762 139.24 37.574 206.67 12.078 68.828 124.38 91.32 119.09 6.7188-5.332-85.945 8.4141-126.93 25-189.99 11.535-46.188 10.547-95 18.961-144.44 4.668-27.148 12.426-54.238 17-82 10.062-59.73-34.512-146.12-175.35-116.18z" fill="#ff751f"/>
 <path d="m648.72 895.59c15.359 24.52 10.906 53.613-11.254 80.332-20 24.105-48.879 22.105-71.934 18.973-31.828-4.2266-59.32-36.32-53-70.828 8.1992-45.281 45.84-77.652 93.613-65.559 20.789 5.2148 32.734 21.242 42.574 37.082z" fill="#ff751f"/>
</svg>
