<?xml version="1.0" encoding="UTF-8"?>
<svg width="1200pt" height="1200pt" version="1.1" viewBox="0 0 1200 1200" xmlns="http://www.w3.org/2000/svg">
 <path d="m621.24 479.16c42.281 0 80.391 25.453 96.562 64.547 16.172 39.047 7.2656 84-22.641 113.91-29.906 29.859-74.859 38.812-113.91 22.641s-64.547-54.281-64.547-96.562c0-27.75 11.016-54.328 30.609-73.922 19.641-19.594 46.219-30.609 73.922-30.609zm517.69 94.453c-13.406-44.156-44.859-80.578-86.625-100.22-44.25-18.938-92.203-27.844-140.29-26.016h-86.156c-20.812 0.32812-41.297 5.25-60 14.391-18.797 9.0469-36.141 20.719-51.609 34.688 36.797 39.094 45.094 97.078 20.672 144.94-24.375 47.859-76.172 75.234-129.47 68.391-53.25-6.7969-96.469-46.359-108.05-98.812-11.578-52.406 11.062-106.45 56.531-135.05-20.672-29.531-47.812-53.953-79.312-71.391-35.203-18.844-74.672-28.406-114.61-27.75h-60c-78.234 0-138.84 21.469-180 60-41.156 38.531-65.297 97.359-66.375 168.74 0.9375 25.453 3.7969 50.812 8.5312 75.844 18.703 100.08 65.859 185.29 143.16 243.84 63.422 45.891 137.53 74.766 215.29 84 19.219 2.7656 38.719-2.25 54.234-13.922 23.766-17.812 34.453-48.188 27.047-76.922-7.3594-28.781-31.359-50.25-60.75-54.375-50.859-6-99.375-24.609-141.14-54.234-38.203-28.781-66.797-68.438-81.938-113.77-9.9375-28.969-15.938-59.156-17.766-89.766-0.046876-6.1406 4.5469-11.297 10.641-12 3-0.23437 6 0.75 8.25 2.7656 2.25 1.9688 3.6094 4.7812 3.75 7.7812 1.7812 28.641 7.3125 56.906 16.594 84 13.594 41.062 39.328 77.062 73.781 103.22 30.094 21.703 64.359 36.844 100.69 44.391 21.656-64.406 81.938-107.81 149.86-108h114.84c63.562 0.09375 120.94 38.156 145.69 96.75 22.734-7.8281 44.156-18.984 63.609-33.141 34.453-26.109 60.188-61.969 73.922-102.94 9.2344-27.141 14.812-55.406 16.547-84 0.1875-3.0469 1.5469-5.8594 3.7969-7.8281 2.25-2.0156 5.2031-3 8.2031-2.7656 6.1406 0.70312 10.734 5.8594 10.688 12-2.1094 30.516-8.25 60.609-18.234 89.531-15.188 45.188-43.688 84.75-81.703 113.53-41.859 29.766-90.516 48.469-141.52 54.469-19.547 2.3438-37.359 12.422-49.406 28.031-12 15.609-17.25 35.391-14.531 54.938 2.7188 19.5 13.172 37.078 29.016 48.797 15.891 11.719 35.766 16.547 55.219 13.453 78-9.1406 152.34-38.062 216-84 57.469-44.203 100.59-104.39 123.84-173.06 18.609-52.219 37.312-123.61 19.078-178.55zm-129.61 369.71c-51.469 38.016-110.39 64.734-172.92 78.469v98.766h241.82c3.375 0.046874 6.5625-1.4531 8.7188-4.0781 2.25-2.5312 3.1875-6 2.5312-9.3281l-36-202.92c-13.688 14.109-28.453 27.188-44.156 39.094zm-296.76 70.078c-31.031-23.297-45.047-63-35.391-100.64 9.6562-37.594 41.016-65.719 79.453-71.203 15.516-2.1562 30.938-5.3438 46.078-9.4688-21.375-49.5-70.078-81.609-123.98-81.703h-114.7c-30-0.046874-59.156 9.9844-82.781 28.406-20.391 15.797-35.859 36.984-44.672 61.219l7.7812 1.2188h0.046874c50.812 6.5156 87.562 51.844 83.391 102.94-4.125 51.094-47.672 89.906-98.906 88.219v87.844h384.84v-93.516l-30.094 5.2969c-25.219 3.4688-50.766-3.2344-71.062-18.609zm-538.69-84v180c0.32812 6.1875 5.25 11.109 11.438 11.391h220.78v-90.844c-77.391-10.875-150.89-40.594-214.08-86.625-6.4688-4.6875-12-9.375-18.141-14.391zm711.94-507.61h0.046875c53.391 0 101.53-32.156 121.97-81.469 20.391-49.312 9.1406-106.08-28.641-143.86-37.734-37.734-94.5-49.031-143.86-28.594-49.312 20.438-81.469 68.531-81.469 121.92 0.28125 72.75 59.297 131.53 132 131.53zm-510-71.297 0.046875 0.046875c54.703 0.046875 104.06-32.859 125.11-83.391 21-50.484 9.5156-108.7-29.062-147.47-38.625-38.766-96.75-50.531-147.37-29.719s-83.719 70.031-83.906 124.74c0 74.719 60.516 135.28 135.24 135.37z" fill="#CF4D21" fill-rule="evenodd"/>
</svg>
