<?xml version="1.0" encoding="UTF-8"?>
<svg width="1200pt" height="1200pt" version="1.1" viewBox="0 0 1200 1200" xmlns="http://www.w3.org/2000/svg">
 <path fill="#CF4D21" d="m908.95 1199.3h-619.31c-159.56 0-289.64-130.03-289.64-289.64v-619.31c0-160.26 130.03-289.64 289.64-289.64h620.02c160.26 0 290.34 129.32 290.34 289.64v620.02c-1.4062 158.86-130.74 288.94-291.05 288.94zm-619.31-1166.3c-141.98 0-257.29 114.61-257.29 257.29v620.02c0 141.28 115.31 256.6 256.6 256.6h620.02c141.28 0 256.6-115.31 256.6-256.6v-620.02c0-141.28-115.31-256.6-256.6-256.6h-619.31z" fill-rule="evenodd"/>
 <path fill="#CF4D21" d="m908.95 1119.8h-619.31c-114.61 0-209.48-94.219-209.48-209.48v-620.02c0-115.31 93.516-209.48 209.48-209.48h620.02c116.02 0 210.19 93.516 210.19 209.48v620.02c0 115.31-94.922 209.48-210.89 209.48zm-619.31-1007.4c-97.031 0-176.44 79.453-176.44 177.14v620.02c0 97.031 79.453 177.14 176.44 177.14h620.02c97.734 0 177.84-80.156 177.84-177.14v-619.31c0-97.734-80.156-176.44-177.84-176.44h-620.02z" fill-rule="evenodd"/>
 <path fill="#CF4D21" d="m922.31 684.71h-399.98c-45.703 0-82.969-37.266-82.969-82.266 0-45.703 37.266-82.969 82.969-82.969h399.98c46.406 0 82.969 37.266 82.969 82.969 0 45-36.562 82.266-82.969 82.266zm-399.28-132.84c-27.422 0-50.625 23.906-50.625 50.625 0 27.422 22.5 49.922 50.625 49.922h400.69c27.422 0 50.625-22.5 50.625-49.922 0-26.719-23.203-50.625-50.625-50.625z" fill-rule="evenodd"/>
 <path fill="#CF4D21" d="m746.58 951.14h-224.26c-45.703 0-82.969-37.266-82.969-82.969s37.266-81.562 82.969-81.562h224.26c46.406 0 82.266 36.562 82.266 81.562 0.70312 45.703-35.859 82.969-82.266 82.969zm-223.55-132.84c-27.422 0-50.625 22.5-50.625 49.922 0 27.422 22.5 50.625 50.625 50.625h224.95c28.125 0 49.922-22.5 49.922-50.625 0-27.422-22.5-49.922-49.922-49.922z" fill-rule="evenodd"/>
 <path fill="#CF4D21" d="m922.31 418.97h-399.98c-45.703 0-82.969-36.562-82.969-82.969 0-45.703 37.266-82.969 82.969-82.969h399.98c46.406 0 82.969 37.266 82.969 82.969 0 46.406-36.562 82.969-82.969 82.969zm-399.28-133.55c-27.422 0-50.625 23.906-50.625 50.625 0 27.422 23.203 51.328 50.625 51.328h400.69c27.422 0 50.625-23.906 50.625-51.328 0-26.719-23.203-50.625-50.625-50.625z" fill-rule="evenodd"/>
 <path fill="#CF4D21" d="m273.47 440.76c-9.1406 0-16.875-7.7344-16.875-16.875v-175.74c0-8.4375 7.7344-16.172 16.875-16.172 8.4375 0 16.172 7.7344 16.172 16.172v175.74c0 9.1406-7.7344 16.875-16.172 16.875z" fill-rule="evenodd"/>
 <path fill="#CF4D21" d="m304.4 440.76h-63.984c-9.1406 0-16.875-7.7344-16.875-16.875 0-8.4375 7.7344-16.172 16.875-16.172h63.984c9.1406 0 16.875 7.7344 16.875 16.172 0 9.1406-7.0312 16.875-16.875 16.875z" fill-rule="evenodd"/>
 <path fill="#CF4D21" d="m230.58 303c-4.9219 0-9.1406-2.1094-11.953-5.625-5.625-7.0312-5.625-17.578 0.70312-23.203l43.594-39.375c6.3281-5.625 17.578-5.625 23.203 0.70312 5.625 7.0312 5.625 17.578-1.4062 23.906l-42.891 38.672c-3.5156 4.2188-7.7344 4.9219-11.25 4.9219z" fill-rule="evenodd"/>
 <path fill="#CF4D21" d="m324.79 707.21-113.2-0.70312c-4.9219 0-9.8438-2.1094-12.656-7.0312s-3.5156-9.1406-2.8125-13.359c5.625-26.016 24.609-38.672 40.078-49.922 2.1094-2.1094 4.2188-2.8125 7.0312-4.9219 22.5-16.875 45.703-37.969 45.703-37.969 7.0312-7.0312 10.547-16.172 10.547-25.312 0-19.688-16.172-36.562-35.859-36.562s-35.859 15.469-35.859 35.156c0 9.1406-8.4375 16.875-16.875 15.469-9.1406 0-16.875-7.7344-15.469-16.172-1.4062-37.969 28.828-67.5 67.5-67.5 37.969 0 68.906 30.938 68.906 69.609 0 18.281-7.0312 35.859-20.391 48.516-0.70312 0.70312-24.609 23.203-48.516 40.781-2.1094 2.1094-4.2188 2.8125-7.0312 4.9219-6.3281 4.2188-10.547 7.7344-14.766 11.953l83.672 0.70312c9.1406 0 16.875 7.7344 16.875 16.875 0 7.7344-7.0312 15.469-16.875 15.469z" fill-rule="evenodd"/>
 <path fill="#CF4D21" d="m266.44 972.94c-26.016 0-50.625-17.578-58.359-45-2.1094-9.1406 2.8125-17.578 11.25-20.391 9.1406-2.1094 17.578 2.8125 21.094 11.25 3.5156 14.766 18.984 23.906 33.75 19.688 14.766-3.5156 23.906-18.281 19.688-33.047-2.8125-11.953-12.656-19.688-24.609-21.797-8.4375-0.70312-14.766-7.7344-14.766-16.172 0-9.1406 7.0312-15.469 16.172-15.469 11.25-1.4062 21.094-9.1406 23.906-21.094 2.1094-6.3281 1.4062-14.062-2.8125-20.391-3.5156-5.625-9.8438-10.547-16.172-12.656-7.0312-2.1094-14.766-0.70312-21.797 2.8125-5.625 4.2188-10.547 9.8438-12.656 16.875-2.1094 8.4375-11.953 13.359-20.391 11.953-9.1406-2.1094-14.062-11.953-11.953-20.391 4.2188-16.172 14.062-28.828 28.125-36.562s30.234-9.8438 46.406-5.625c15.469 3.5156 28.125 13.359 35.859 28.125 7.7344 14.062 10.547 30.234 5.625 45.703-2.8125 11.25-8.4375 20.391-16.172 28.828 7.7344 7.7344 13.359 17.578 16.172 28.125 9.1406 32.344-10.547 64.688-41.484 73.125-6.3281 0.70312-11.25 2.1094-16.875 2.1094z" fill-rule="evenodd"/>
</svg>
