<?xml version="1.0" encoding="UTF-8"?>
<svg width="1200pt" height="1200pt" version="1.1" viewBox="0 0 1200 1200" xmlns="http://www.w3.org/2000/svg">
 <path fill="#CF4D21" d="m599.95 926.86c-26.625 15.797-55.406 28.453-85.688 37.406-34.266 10.125-70.406 15.562-107.62 15.562-33.984-0.09375-66.844-4.5469-97.922-12.844-29.062-7.7344-56.859-18.938-82.875-33.047l-159.61 34.969c-12.938 2.8125-25.688-5.4375-28.5-18.375-0.75-3.5625-0.70312-7.125 0.09375-10.453l34.875-159.28c-14.109-26.016-25.312-53.859-33.047-82.922-8.3438-31.359-12.797-64.172-12.797-97.875 0-104.86 42.516-199.78 111.28-268.55 68.672-68.672 163.64-111.19 268.55-111.19 37.266-0.09375 73.406 5.3438 107.62 15.469 30.281 8.9531 59.062 21.609 85.688 37.406 56.672-33.656 122.81-52.922 193.45-52.922 104.77 0 199.74 42.516 268.45 111.28 68.812 68.812 111.33 163.78 111.33 268.55 0 33.703-4.4531 66.562-12.797 97.875-7.7344 29.062-18.891 56.906-33.047 82.922l34.922 159.61c2.8125 12.938-5.4375 25.688-18.375 28.5-3.5625 0.75-7.125 0.70312-10.453-0.09375l-159.28-34.875c-26.016 14.109-53.859 25.312-82.922 33.047-31.359 8.3438-64.172 12.797-97.875 12.797-70.594 0-136.74-19.312-193.4-52.969zm369.98-364.78c20.953 0 37.922 16.969 37.922 37.922s-16.969 37.922-37.922 37.922-37.922-16.969-37.922-37.922 16.969-37.922 37.922-37.922zm-117.7 0c20.953 0 37.922 16.969 37.922 37.922s-16.969 37.922-37.922 37.922-37.922-16.969-37.922-37.922 16.969-37.922 37.922-37.922zm-117.7 0c20.953 0 37.922 16.969 37.922 37.922s-16.969 37.922-37.922 37.922-37.922-16.969-37.922-37.922 16.969-37.922 37.922-37.922zm-117.7 0c20.953 0 37.922 16.969 37.922 37.922s-16.969 37.922-37.922 37.922-37.922-16.969-37.922-37.922 16.969-37.922 37.922-37.922zm411.24-196.74c-60.047-60-143.02-97.125-234.66-97.125-91.641 0-174.61 37.125-234.61 97.172-60.047 60-97.172 142.97-97.172 234.61s37.125 174.61 97.172 234.61c59.953 60.047 142.92 97.172 234.61 97.172 29.766 0 58.5-3.8906 85.688-11.109 27.609-7.3594 53.766-18.141 77.953-31.875 5.25-3.5625 11.906-5.1094 18.609-3.6562l131.76 28.828-28.828-131.81c-1.125-5.5781-0.32812-11.625 2.7188-16.969 14.156-24.609 25.266-51.328 32.766-79.547 7.2656-27.188 11.109-55.922 11.109-85.688 0-91.641-37.125-174.61-97.125-234.66zm-680.29 196.74c20.953 0 37.922 16.969 37.922 37.922s-16.969 37.922-37.922 37.922c-20.953 0-37.922-16.969-37.922-37.922s16.969-37.922 37.922-37.922zm-117.7 0c20.953 0 37.922 16.969 37.922 37.922s-16.969 37.922-37.922 37.922c-20.953 0-37.922-16.969-37.922-37.922s16.969-37.922 37.922-37.922z" fill-rule="evenodd"/>
</svg>
