<?xml version="1.0" encoding="UTF-8"?>
<svg width="1200pt" height="1200pt" version="1.1" viewBox="0 0 1200 1200" xmlns="http://www.w3.org/2000/svg">
 <path d="m503.25 778.23c-29.719-73.332-36.254-136.59 16.879-193.21 39.852-52 143.96-103.81 152.97-169.48 18.691-134.88-155.75-99.719-141.79-1.9453 7.1484 49.84-13.465 70.281-50.559 87.613-50.348 23.613-85.398 23.055-90.199-102.85-3.2539-86.426 62.227-164.71 146.33-179.92 101.43-27.691 258.31 19.668 293.17 124.6 25.762 75.84-9.5078 168.6-80.707 219.39-111.17 79.387-160.2 99.441-160.4 195.73-0.14844 46.117-67.707 64.398-85.707 20.078z" fill="#CF4D21"/>
 <path d="m651.8 903.05c6.3867 22.973 5.1328 48.961-8 69.426-28.414 44.508-80.148 38.961-120.96 21.945-34.668-14.375-48.547-57.453-33.281-90.625 18.281-39.668 49.105-59.668 83.895-58.199 46.52 1.9453 67.012 16.586 78.348 57.453z" fill="#CF4D21"/>
</svg>
