<?xml version="1.0" encoding="UTF-8"?>
<svg width="1200pt" height="1200pt" version="1.1" viewBox="0 0 1200 1200" xmlns="http://www.w3.org/2000/svg">
 <path d="m584.89 953.16h-64.734l-91.219 0.9375c-8.4453-0.65234-16.906 1.0117-24.477 4.8164l-51.359 1.8711-8.9609 4.4141-7.8906 0.66797-35.98 1.4727c-19.66 7.0898-40.125 4.2812-60.188 5.8867l0.003906-0.003907c-7.4297-0.45703-14.859 0.875-21.668 3.8789-16.332 3.125-33.152 2.5273-49.223-1.7383-2.5898-1.0469-5.3594-1.5898-8.1562-1.6055-13.957-0.73047-27.617-4.3281-40.125-10.566l-13.375-5.2148c-3.8398-2.6328-6.793-6.3711-8.4648-10.715-1.6719-4.3477-1.9844-9.0977-0.89844-13.629l-9.4961-16.453c0-9.8984 0-20.465-0.80078-31.164v0.003907c0.35156-8.5-0.91797-16.988-3.7461-25.012-0.71875-1.9766-1.125-4.0508-1.2031-6.1523-0.22656-8.5273-1.1211-17.023-2.6758-25.414-1.9844-7.1133-3.5039-14.352-4.5469-21.664-1.0703-8.4258-4.8164-15.918-5.4844-24.609v-0.003906c-1.0508-7.25-2.8438-14.379-5.3516-21.266-2.4062-8.0234-4.5469-16.051-6.9531-24.074-3.1094-12.156-7.043-24.086-11.77-35.711-1.3945-3.9453-2.3828-8.0234-2.9453-12.172-0.45703-3.1484-1.082-6.2734-1.8711-9.3594-4.4023-10.617-7.7617-21.637-10.031-32.902-2.0078-10.289-4.6875-20.43-8.0234-30.363-0.875-3.0195-1.5039-6.1055-1.875-9.2266-0.25-8.4648-1.7383-16.848-4.4141-24.879-2.1406-5.4844 0-13.375-2.2734-18.859-3.9609-16.328-5.8516-33.09-5.6172-49.887l-3.207-10.031v-9.3633c0.87109-13.797-0.62109-27.637-4.4141-40.93l-1.4727-27.418 3.2109-9.3633c-1.5117-2.9023-2.5898-6.0117-3.2109-9.2266v-38.52c3.6797-13.316 5.3047-27.121 4.8164-40.93 0.37891-4.2188 1.3711-8.3672 2.9414-12.305 1.0156-2.9883 1.6875-6.0859 2.0078-9.2266 0.24219-6.3789 1.2305-12.711 2.9414-18.859 2.8633-11.152 6.3438-22.137 10.43-32.902l6.0195-12.707c5.0234-8.4023 11.715-15.688 19.664-21.398 5.3516 0 11.77-1.0703 18.191-0.9375 17.52 0 35.043 0.9375 52.562 1.6055h-0.003907c2.7461-0.3125 5.5273-0.039062 8.1602 0.80078 11.258 4.418 23.434 5.9805 35.445 4.5508h130c3.6797 0.44922 7.4141 0.13281 10.965-0.9375 12.262-4.125 25.219-5.7617 38.121-4.8164l30.359-0.9375v0.003906c5.5117-0.27344 10.957-1.3086 16.184-3.0781 6.2656-1.5312 12.68-2.3828 19.129-2.5391 12.977 0.61328 25.961-1.0156 38.383-4.8164 4.3516-1.207 8.8828-1.6133 13.375-1.2031l40.125-1.4727c6.6641-2.0508 13.457-3.6602 20.332-4.8125 10.164-0.80078 20.328 0 30.359-1.0703 7.3945 0.30469 14.773-0.92188 21.668-3.6133 4.3047-1.4375 8.8477-2.0273 13.375-1.7383l45.875-1.7383 9.4961-4.4141 72.758-2.0078 8.6953-4.0117h5.4844l58.047-1.7383c3.6719 0.49609 7.4102 0.22266 10.969-0.80078 11.367-3.9727 23.469-5.3906 35.445-4.1484 19.395-0.9375 38.652-1.2031 58.449-1.7383l10.699-4.4141 44.402-1.2031 11.102-4.9492h26.75c3.4766 0 6.9531 2.6758 10.434 2.6758 3.4766 0 7.0898-2.4062 10.566-2.8086 10.164-0.9375 20.195-1.4727 30.094-2.0078l10.699-4.4141c21.863-1.5234 43.809-1.5234 65.672 0 7.0898 1.3359 12.039 8.0234 17.52 6.0195 16.184 9.8984 22.738 26.75 32.234 42.934 1.7461 13.086 4.7031 25.98 8.8281 38.52 1.5039 3.9141 2.4922 8.0039 2.9414 12.172 0.9375 12.645 3.2266 25.156 6.8203 37.316 1.4727 11.504 4.4141 22.738 6.6875 34.105 1.168 4.7227 2.1055 9.5 2.8086 14.312-0.35938 14.867 1.3047 29.719 4.9492 44.137 0.48047 3.1484 0.48047 6.3477 0 9.4961 0 14.98 0.40234 29.961 1.2031 44.941 0.40625 7.4844 0.40625 14.984 0 22.469 0 7.4883 4.5469 14.176 1.4727 21.668 2.8125 17.684 3.5742 35.637 2.2734 53.5 0 6.1523-4.1445 12.039-0.80078 18.324-2.9766 10.238-4.0195 20.941-3.0781 31.562-0.66797 13.375-1.0703 27.82-1.4727 41.73-4.1406 15.422-5.8125 31.402-4.9453 47.348-0.25391 6.3789-1.2422 12.707-2.9453 18.859-1.4844 6.1797-2.293 12.504-2.4062 18.859-0.24219 9.5117-1.4961 18.973-3.7461 28.219-1.4648 8.8828-2.0469 17.887-1.7383 26.883-2.0547 6.8516-3.707 13.82-4.9492 20.867-0.36328 8.4297-1.7539 16.785-4.1445 24.875-1.0469 7.1172-2.4727 14.172-4.2812 21.133-1.0312 2.9805-1.6602 6.082-1.8711 9.2305-0.0625 9.5352-1.3672 19.02-3.8789 28.219-3.8789 8.6953-1.4727 19.125-6.1523 27.688-1.4219 2.8555-2.0234 6.0508-1.7383 9.2305 1.2031 12.172-5.3516 22.469-5.8867 34.238-3.9844 8.668-5.8633 18.152-5.4844 27.688 0 9.6289-5.75 17.922-5.75 27.82-0.82812 4.0273-2.2734 7.9102-4.2812 11.5-3.9727 10.34-10.453 19.535-18.855 26.75-2.1289 2.0547-5.5 2.0547-7.625 0-2.1719-4.7227-3.0078-9.9492-2.4062-15.113v-14.312l-4.2812-13.375-1.2031-89.211-3.6094-11.77c-0.66797-13.375-1.3359-26.75-2.0078-39.324v0.003906c-0.19922-1.0156-0.51172-2-0.9375-2.9414-1.9805-3.3945-6.2812-4.6328-9.7656-2.8125-7.8906 2.8086-15.383 6.9531-23.406 9.2305-7.9961 2.3945-15.816 5.3438-23.406 8.8281-9.7852 3.2031-19.387 6.957-28.754 11.234-10.07 1.5508-19.883 4.4766-29.156 8.6953-6.9258 2.5938-13.977 4.8242-21.133 6.6875-7.2227 1.2031-13.375 5.2148-21.133 6.4219-7.7578 1.2031-17.52 6.0195-26.75 7.0898-7.0898 6.1523-16.453 2.543-23.809 6.9531v-0.003906c-7.7266 3.1289-16.004 4.6758-24.34 4.5469-2.7578 0.10547-5.4727 0.69531-8.0273 1.7422-5.9219 2.6953-12.352 4.1094-18.859 4.1445-11.105-0.30859-22.176 1.4609-32.633 5.2148-3.5547 1.0469-7.2852 1.3672-10.969 0.9375l-29.961 1.4727-8.4258 4.1445h-7.8906c-14.711 0-29.426 0.66797-44.137 1.3359v0.003906c-8.4219-0.3125-16.801 1.3359-24.477 4.8125-3.4922 1.1289-7.1875 1.4922-10.832 1.0703l-64.066 2.0078zm494.87-653.63c0-10.297-0.66797-21-1.4727-31.699 0-7.3555-4.0117-13.375-4.0117-21.801 0-10.699-0.80078-21.398-1.4727-33.703-6.4219-4.4141-1.4727-15.516-8.5586-22.605-2.6758 0-6.1523-0.9375-9.7656-0.9375l-33.566 0.003906c-3.6562 0.34375-7.3438-0.066406-10.836-1.207-9.4336-3.3203-19.445-4.6836-29.422-4.0117-9.3203 4.5469-18.926 8.4805-28.758 11.77-5.6172 3.0781-12.707 1.2031-18.727 4.5469-6.9922 2.4375-14.418 3.3945-21.801 2.8125-5.582-0.019531-11.102 1.1641-16.184 3.4766-2.5039 1.2422-5.2305 1.9688-8.0234 2.1406-12.055-0.37109-24.059 1.6758-35.309 6.0156-9.2305 0-18.457 1.4727-27.551 1.4727h-0.003906c-5.5508 0.55078-10.949 2.1367-15.914 4.6797l-32.637 1.875c-4.5039-0.48828-9.0586-0.03125-13.375 1.3359-8.5352 3.2148-17.641 4.625-26.75 4.1484-6.4219 0.80078-13.375 0-19.395 1.0703-3.6953-0.046874-7.3672 0.58984-10.832 1.8711-5.1133 2.1797-10.625 3.2734-16.184 3.2109l-41.195 1.6055-10.699 4.4141c-13.375 0-27.551 1.6055-41.461 1.2031-7.2734 0.80078-14.418 2.5078-21.27 5.082l-60.055 1.8711-10.434 4.4141-77.844 2.0078-11.629 4.4102c-68.746 1.4727-136.96 2.4062-203.97 0-4.6719-1.875-9.5078-3.3086-14.445-4.2773-14.766 0.09375-29.465-2.0273-43.602-6.2852-5.3867-1.2773-10.926-1.7734-16.453-1.4727l-5.4844-0.80078-8.0234-3.8789c-7.7852 2.1133-15.285 5.168-22.336 9.0938-0.37891 8.6328-1.4492 17.219-3.2109 25.68-2.7656 10.289-3.3125 21.047-1.6055 31.562 3.3438 4.8164-0.9375 10.434 0.80078 14.98h0.003906c1.8789 6.1016 2.6914 12.48 2.4062 18.859v16.051c0 13.375 1.3359 25.68 1.8711 38.387 3.3008 10.098 4.8828 20.676 4.6836 31.297 0.14453 3.1875 0.72656 6.3359 1.7383 9.3633 2.7305 6.9258 3.918 14.367 3.4766 21.801 0 7.8906 4.5469 13.375 4.9492 21.535v-0.003907c0.17969 10.438 1.8438 20.797 4.9492 30.766 0 14.98 7.625 28.488 7.0898 43.734 0.007812 1.0742 0.28516 2.1328 0.80078 3.0781 3.4062 7.8633 5.2656 16.309 5.4844 24.875 0.027344 3.168 0.66406 6.3008 1.8711 9.2305 4.2812 7.7578 1.6055 17.121 4.9492 24.742 2.918 9.1211 4.3633 18.648 4.2812 28.223-0.050781 3.1719 0.40234 6.3281 1.3359 9.3594 2.8594 8.0195 4.1758 16.508 3.8789 25.012-0.14062 4.2773 0.30859 8.5547 1.3398 12.707 3.1445 11.309 4.4102 23.059 3.7422 34.773v16.051c1.0352 11.672-0.19141 23.434-3.6094 34.641-0.75781 3.1055-1.0273 6.3086-0.80469 9.4961 0 8.5586-0.9375 17.121-1.3359 24.879-1.3281 3.1016-2.4922 6.2695-3.4766 9.4961-0.86719 3.043-1.2695 6.1992-1.2031 9.3633-1.5742 11.531-3.8086 22.965-6.6875 34.238-0.66406 4.1289-1.6484 8.1992-2.9453 12.172-1.0703 5.082-1.8711 10.434-2.8086 15.516 0 2.0078-1.2031 4.0117-1.6055 5.75-2.6758 6.8203-9.4961 10.699-8.6953 19.395h0.003907c3.6445 6.0742 8.5742 11.281 14.445 15.246h66.07c3.6875 0.28125 7.3867-0.26562 10.836-1.6055 5.8398-2.9414 12.316-4.4102 18.855-4.2773 6.6875 0 12.172-4.6797 18.59-5.4844h0.003906c8.3867 0.21484 16.688-1.7695 24.074-5.75l27.551-2.4062v-0.003906c1.8633-0.019531 3.6953-0.47656 5.3516-1.3359 6.6523-3.3555 14.109-4.7891 21.535-4.1484 8.293-0.35547 16.469-2.0703 24.207-5.082 8.5586-3.4766 18.324 0 26.75-4.1445l5.082-2.0078c11.156-0.97656 22.234-2.6758 33.172-5.082 6.2031-1.7656 12.562-2.9297 18.992-3.4766 9.2305 0 18.457-1.0703 27.551-1.4727l10.832-4.4141 72.227-2.1406 11.234-4.5469h12.172l82.926-1.2031c4.5312 0.64844 9.1562 0.050781 13.375-1.7383 4.9883-2.5703 10.582-3.7266 16.184-3.3438l63.262-1.7383 9.3633-4.0117 32.5-0.40234 63.664-1.2031c4.5195 0.31641 9.0586-0.22656 13.375-1.6055 6.9688-2.5859 14.379-3.7695 21.801-3.4766 13.375 0 25.812-1.4727 38.652-0.9375h0.003907c7.0625-0.63672 14.02-2.1172 20.73-4.4141 14.312-1.3359 28.488 1.7383 41.328-6.0195l25.012-2.2734c4.7812-3.3711 10.359-5.4453 16.184-6.0156 3.6992 0.45312 7.4531 0.039062 10.969-1.207 8.5586-3.4375 17.566-5.6406 26.75-6.5508 6.8828-0.85938 13.168-4.3594 17.52-9.7656l-1.2031-53.5c-2.1719-6.125-3.5195-12.512-4.0117-18.992v-54.57-80.25c-0.38281-5.125 0.49219-10.266 2.5391-14.977l-2.8086-9.0938v-84.531l4.1445-13.375 0.003907-160.5c-2.4062-7.7578-5.4844-14.711-1.4727-22.203z" fill="#ff751f"/>
</svg>
