<?xml version="1.0" encoding="UTF-8"?>
<svg width="1200pt" height="1200pt" version="1.1" viewBox="0 0 1200 1200" xmlns="http://www.w3.org/2000/svg">
 <path d="m706.6 1152h-213.24c-6.6094 0-12-5.3438-12-12v-14.484c-41.484-22.688-67.922-66.656-67.922-114.14 0-45.562 23.062-86.906 59.953-110.62l-41.906-39.75c-3.5625-3.375-4.6875-8.5781-2.9062-13.125 1.8281-4.5938 6.2344-7.5469 11.156-7.5469h99.188l-6.375-54.844c-4.5-1.2656-8.0625-5.1094-8.7188-10.031l-55.547-428.16c-0.23438-0.75-0.42188-1.5-0.46875-2.2969l-1.7344-14.812c0-0.09375-0.046875-0.23438-0.046875-0.375-0.28125-2.9531 0.5625-5.7188 2.1562-7.9688 0.09375-0.14062 0.1875-0.28125 0.32812-0.42188 0.14062-0.1875 0.23438-0.32812 0.375-0.46875 1.875-2.1562 4.5469-3.6562 7.5938-4.0312h0.046875l14.859-1.7344h0.046875c0.42188-0.046875 0.89062-0.09375 1.3594-0.09375 5.9531 0 11.109 4.4062 11.906 10.5l57.75 445.08c0.42188 3.1875-0.46875 6.375-2.4375 8.9062-1.0312 1.3125-2.25 2.3438-3.6562 3.1406l6.7031 57.609h24.891v-56.672c-4.4062-1.7812-7.5-6.0938-7.5-11.109l0.046875-448.45c0-6.6562 5.3906-12 12-12h14.953c6.6094 0 12 5.3438 12 12v448.45c0 5.0156-3.0938 9.3281-7.5 11.109v56.672h24.891l6.7031-57.609c-1.4062-0.79688-2.6719-1.8281-3.6562-3.1406-1.9688-2.5312-2.8594-5.7188-2.4375-8.9062l57.75-445.08c0.79688-6.1875 6.0469-10.781 12.328-10.453 0.28125 0 0.60938 0 0.9375 0.046875h0.046875l14.859 1.7344h0.046875c3.0469 0.375 5.7188 1.875 7.5938 4.0312 0 0 0-0.046875 0.046875 0.046875 0.14062 0.1875 0.28125 0.32812 0.375 0.46875s0.23438 0.28125 0.32812 0.42188c1.5938 2.25 2.4375 5.0625 2.1562 7.9688 0 0.09375 0 0.23438-0.046875 0.375l-1.7344 14.812c-0.09375 0.79688-0.28125 1.5469-0.46875 2.2969l-55.547 428.16c-0.65625 4.9219-4.1719 8.7656-8.7188 10.031l-6.375 54.844h99.188c4.9219 0 9.3281 3 11.156 7.5469s0.65625 9.75-2.9062 13.125l-41.906 39.703c36.938 23.719 59.953 64.969 59.953 109.41 0 48.656-26.438 92.672-67.922 115.31v14.484c0 6.6562-5.3906 12-12 12zm-90.281-45.938h87.703c35.672-17.953 58.547-54.797 58.547-94.688 0-41.531-23.297-78.656-59.625-96.422h-86.953l87.234 87.281c4.6875 4.6875 4.6875 12.281 0 16.969l-86.906 86.906zm-120.32 0h87.656l-86.906-86.906c-2.25-2.25-3.5156-5.2969-3.5156-8.4844s1.2656-6.2344 3.5156-8.4844l87.234-87.281h-86.953c-36.281 17.766-59.625 54.844-59.625 95.25 0 41.062 22.875 77.953 58.547 95.906zm26.203-95.391 77.766 77.766 77.766-77.766-77.766-77.812zm-24.281-119.72h204.1l28.078-26.625h-260.3l28.078 26.625zm220.5-579.94c-4.7812 0-9.3281-2.9062-11.156-7.5938-2.1562-5.4375-5.3438-8.3906-9.8438-12.422-2.7656-2.4844-5.8594-5.2969-8.9062-8.9531-10.031-12.047-14.531-31.828-3.75-46.406 4.125-5.5781 9.4219-8.9531 14.062-11.906 1.7812-1.125 3.6094-2.25 5.25-3.5625 4.9688-3.9375 8.0625-10.406 8.4844-17.766 0.42187-7.3594-1.875-14.156-6.375-18.656-2.1094-2.1094-4.875-4.0781-7.7812-6.1875-3.8438-2.7188-8.1562-5.8594-12-9.9844-11.672-12.656-15.75-31.922-10.828-51.562 3.9844-16.031 12.891-29.812 20.719-41.953 3.6094-5.5312 11.016-7.1719 16.594-3.5625 5.5781 3.6094 7.1719 11.016 3.5625 16.594-7.1719 11.062-14.578 22.547-17.625 34.688-2.25 9.0938-2.1094 21.609 5.1562 29.484 2.1562 2.3438 5.1562 4.5 8.3438 6.75 3.4219 2.4375 7.2656 5.2031 10.734 8.7188 9.3281 9.3281 14.203 22.828 13.359 37.031s-7.2188 27-17.578 35.203c-2.2969 1.7812-4.7812 3.4219-7.2656 4.9688-3.1875 2.0156-6.1875 3.9375-7.6406 5.9062-2.8125 3.8438-1.5 11.484 2.9062 16.781 2.1094 2.5312 4.4062 4.5469 6.5625 6.5156 5.5312 5.0156 11.812 10.734 16.031 21.422 2.4375 6.1875-0.60938 13.125-6.75 15.562-1.4531 0.5625-2.9062 0.84375-4.4062 0.84375zm-238.45-2.4375c-2.8594 0-5.7188-1.0312-7.9688-3.0469-4.5-3.9844-7.7812-6.0469-10.969-8.0625-4.4062-2.7656-8.9531-5.625-14.156-11.812-10.031-12-14.531-31.828-3.75-46.406 4.125-5.5781 9.4219-8.9531 14.062-11.906 1.7812-1.125 3.6094-2.25 5.25-3.5625 4.9688-3.9375 8.0625-10.406 8.4844-17.766 0.42188-7.3594-1.875-14.156-6.375-18.656-2.1094-2.1094-4.875-4.0781-7.7812-6.1875-3.8438-2.7188-8.1562-5.8594-12-9.9844-11.672-12.656-15.75-31.922-10.828-51.562 3.9844-16.031 12.891-29.812 20.719-41.953 3.6094-5.5312 11.016-7.125 16.594-3.5625 5.5781 3.6094 7.1719 11.016 3.5625 16.594-7.1719 11.062-14.578 22.547-17.578 34.688-2.25 9.0938-2.1094 21.609 5.1562 29.484 2.1562 2.3438 5.1562 4.5 8.3438 6.75 3.4219 2.4375 7.2656 5.2031 10.734 8.7188 9.3281 9.3281 14.203 22.781 13.359 36.984s-7.2188 27.047-17.578 35.203c-2.2969 1.7812-4.7812 3.4219-7.2656 4.9688-3.1875 2.0156-6.1875 3.9375-7.6406 5.9062-3.0938 4.2188-1.0312 12.047 2.9062 16.734 2.7188 3.2812 4.7812 4.5469 8.4375 6.8438s8.2031 5.1562 14.203 10.5c4.9688 4.4062 5.3906 12 0.98438 16.969-2.3438 2.625-5.6719 4.0312-8.9531 4.0312zm112.31-3.6562c-3 0-6.0469-1.125-8.3906-3.375-14.531-14.156-21.516-28.594-20.766-42.938 0.75-14.812 9.4219-28.547 26.438-42 2.7188-2.1562 6.4688-5.3906 7.5469-8.625 1.6875-5.1562-12.891-13.266-20.672-17.625-4.6406-2.5781-9-5.0156-12.422-7.5938-14.438-10.969-22.172-25.453-21.281-39.656 0.9375-14.578 9.9375-24.844 17.906-33.891 2.6719-3.0469 5.3906-6.0938 7.6875-9.3281 7.5-10.547 10.078-24.375 6.9375-36.938-1.5938-6.4219 2.2969-12.938 8.7188-14.531 6.4219-1.5469 12.938 2.3438 14.531 8.7188 4.7812 19.266 0.84375 40.406-10.641 56.625-2.7656 3.8906-6 7.5938-9.2344 11.297-6.1875 7.0781-11.578 13.172-12 19.594-0.375 6 4.0312 13.125 11.859 19.078 2.0625 1.5469 5.7188 3.5625 9.5625 5.7656 14.812 8.25 39.562 22.078 31.828 45.984-3.0938 9.4688-10.312 16.031-15.516 20.062-11.109 8.7656-16.969 16.969-17.344 24.375-0.375 7.125 4.2188 15.375 13.547 24.469 4.7344 4.6406 4.8281 12.234 0.23438 16.969-2.3438 2.4375-5.4844 3.6562-8.5781 3.6562z"/>
</svg>
