<?xml version="1.0" encoding="UTF-8"?>
<svg width="1200pt" height="1200pt" version="1.1" viewBox="0 0 1200 1200" xmlns="http://www.w3.org/2000/svg">
 <path d="m733.18 367.5c-42.328-37.828-99.328-55.828-156.32-49.5-89.672 9.9844-163.31 82.312-174.98 171.84-7.6875 58.312 9.1875 114.52 47.672 158.34 19.828 22.688 32.672 47.344 37.828 73.172l2.3438 11.672c7.6875 38.812 42 66.984 81.656 66.984h45.328c0-45.984 37.312-83.344 83.344-83.344h13.828c5.6719-24.188 18.188-47.344 37.172-69 31.5-36.328 48.984-82.828 48.984-131.02 0-56.812-24.328-111.19-66.844-149.16zm-116.48 299.16h-33.328c-9.1875 0-16.688-7.5-16.688-16.688s7.5-16.688 16.688-16.688h33.328c9.1875 0 16.688 7.5 16.688 16.688s-7.5 16.688-16.688 16.688zm33.328-49.969h-99.984c-9.1875 0-16.688-7.5-16.688-16.688s7.5-16.688 16.688-16.688h99.984c9.1875 0 16.688 7.5 16.688 16.688s-7.5 16.688-16.688 16.688z"/>
 <path d="m616.69 816.66v33.328h-66.656c-9.1875 0-16.688-7.5-16.688-16.688s7.5-16.688 16.688-16.688h66.656z"/>
 <path d="m616.69 866.68v33.328h-33.328c-9.1875 0-16.688-7.5-16.688-16.688s7.5-16.688 16.688-16.688h33.328z"/>
 <path d="m1100 750h-166.69c-12.797 0-24.469 4.8281-33.328 12.75-8.8594-7.9219-20.531-12.75-33.328-12.75h-166.69c-27.562 0-50.016 22.406-50.016 50.016v266.68c0 27.562 22.406 50.016 50.016 50.016h166.69c9.1875 0 16.688 7.4531 16.688 16.688s7.4531 16.688 16.688 16.688c9.1875 0 16.688-7.4531 16.688-16.688 0-9.1875 7.5-16.688 16.688-16.688h166.69c27.562 0 50.016-22.406 50.016-50.016v-266.68c0-27.562-22.406-50.016-50.016-50.016zm-233.34 333.32h-166.69c-9.1875 0-16.688-7.4531-16.688-16.688v-266.68c0-9.1875 7.5-16.688 16.688-16.688h166.69c9.1875 0 16.688 7.4531 16.688 16.688v286.31c-5.25-1.875-10.828-3-16.688-3zm249.98-16.641c0 9.1875-7.5 16.688-16.688 16.688h-166.69c-5.8594 0-11.438 1.125-16.688 3v-286.31c0-9.1875 7.5-16.688 16.688-16.688h166.69c9.1875 0 16.688 7.4531 16.688 16.688v266.68z"/>
 <path d="m833.34 816.66h-99.984c-9.1875 0-16.688 7.4531-16.688 16.688s7.4531 16.688 16.688 16.688h99.984c9.1875 0 16.688-7.4531 16.688-16.688s-7.4531-16.688-16.688-16.688z"/>
 <path d="m833.34 883.31h-99.984c-9.1875 0-16.688 7.4531-16.688 16.688s7.4531 16.688 16.688 16.688h99.984c9.1875 0 16.688-7.4531 16.688-16.688s-7.4531-16.688-16.688-16.688z"/>
 <path d="m833.34 950.02h-99.984c-9.1875 0-16.688 7.4531-16.688 16.688s7.4531 16.688 16.688 16.688h99.984c9.1875 0 16.688-7.4531 16.688-16.688s-7.4531-16.688-16.688-16.688z"/>
 <path d="m833.34 1016.7h-99.984c-9.1875 0-16.688 7.4531-16.688 16.688s7.4531 16.688 16.688 16.688h99.984c9.1875 0 16.688-7.4531 16.688-16.688s-7.4531-16.688-16.688-16.688z"/>
 <path d="m1066.7 816.66h-99.984c-9.1875 0-16.688 7.4531-16.688 16.688s7.4531 16.688 16.688 16.688h99.984c9.1875 0 16.688-7.4531 16.688-16.688s-7.4531-16.688-16.688-16.688z"/>
 <path d="m1066.7 883.31h-99.984c-9.1875 0-16.688 7.4531-16.688 16.688s7.4531 16.688 16.688 16.688h99.984c9.1875 0 16.688-7.4531 16.688-16.688s-7.4531-16.688-16.688-16.688z"/>
 <path d="m1066.7 950.02h-99.984c-9.1875 0-16.688 7.4531-16.688 16.688s7.4531 16.688 16.688 16.688h99.984c9.1875 0 16.688-7.4531 16.688-16.688s-7.4531-16.688-16.688-16.688z"/>
 <path d="m1066.7 1016.7h-99.984c-9.1875 0-16.688 7.4531-16.688 16.688s7.4531 16.688 16.688 16.688h99.984c9.1875 0 16.688-7.4531 16.688-16.688s-7.4531-16.688-16.688-16.688z"/>
 <path d="m559.18 261-21.984-11.016 21.984-11.016c15-7.5 24.188-22.312 24.188-39s-9.1875-31.5-24.188-39l-203.48-101.81c-24.188-12-53.812-12-78 0l-203.48 101.81c-15 7.5-24.188 22.312-24.188 39s9.1875 31.5 24.188 39l21.984 11.016-21.984 11.016c-15 7.5-24.188 22.312-24.188 39s9.1875 31.5 24.188 39l21.984 11.016-21.984 11.016c-15 7.5-24.188 22.312-24.188 39s9.1875 31.5 24.188 39l203.48 101.81c12 6 25.5 9.1875 39 9.1875s27-3.1875 39-9.1875l11.672-5.8125c-0.84375-12.328-0.84375-24.656 0.1875-37.312l-26.672 13.312c-15 7.5-33.328 7.5-48.328 0l-203.48-101.81c-3.5156-1.6875-5.6719-5.1562-5.6719-9.1875 0-3.9844 2.1562-7.5 5.6719-9.1875l44.344-22.172 144.32 72.188c12 6 25.5 9.1875 39 9.1875s27-3.1875 39-9.1875l29.484-14.672c7.8281-18.984 18.516-36.656 30.984-52.828l-75.328 37.688c-15 7.5-33.328 7.5-48.328 0l-203.48-101.81c-3.5156-1.6875-5.6719-5.1562-5.6719-9.1875 0-3.9844 2.1562-7.5 5.6719-9.1875l44.344-22.172 144.32 72.188c12 6 25.5 9.1875 39 9.1875s27-3.1875 39-9.1875l144.32-72.188 43.172 21.656c9.8438-2.4844 19.828-4.3125 30-5.4844 2.3438-0.32812 4.8281-0.51562 7.1719-0.65625-3.8438-9.9844-11.156-18.188-21.188-23.156z"/>
</svg>
