<?xml version="1.0" encoding="UTF-8"?>
<svg width="1200pt" height="1200pt" version="1.1" viewBox="0 0 1200 1200" xmlns="http://www.w3.org/2000/svg">
 <path d="m720 390c0 66.273-53.727 120-120 120s-120-53.727-120-120 53.727-120 120-120 120 53.727 120 120z" fill="#CF4D21"/>
 <path d="m976.8 331.2c-25.199-16.801-60-9.6016-76.801 16.801l-120 192h-330c-19.199 1.1992-37.199 12-48 28.801l-135.6 256.8c-14.398 25.199-7.1992 57.602 16.801 73.199 25.199 16.801 60 9.6016 76.801-16.801l90-166.8v274.8h300v-330h56.398c21.602 0 40.801-10.801 51.602-28.801l135.6-226.8c14.398-25.199 7.1992-57.598-16.801-73.199z" fill="#CF4D21"/>
 <path d="m990 289.2c-6 0-10.801 4.8008-10.801 10.801s4.8008 10.801 10.801 10.801c3.6016 0 19.199 1.1992 19.199 19.199 0 6 4.8008 10.801 10.801 10.801s10.801-4.8008 10.801-10.801c0-30-24-40.801-40.801-40.801z" fill="#CF4D21"/>
 <path d="m1020 259.2c-6 0-10.801 4.8008-10.801 10.801s4.8008 10.801 10.801 10.801c3.6016 0 19.199 1.1992 19.199 19.199 0 6 4.8008 10.801 10.801 10.801s10.801-4.8008 10.801-10.801c0-30-24-40.801-40.801-40.801z" fill="#CF4D21"/>
</svg>
