<?xml version="1.0" encoding="UTF-8"?>
<svg width="1200pt" height="1200pt" version="1.1" viewBox="0 0 1200 1200" xmlns="http://www.w3.org/2000/svg">
 <path fill="#000000" d="m1009 190.97c-289.36-268.92-699.47 110.25-453.94 418.69l-43.359 43.359c-31.359-18.656-69.375-18.234-94.5 4.0312l-293.16 259.13c-35.438 31.078-28.172 88.406 5.3438 120.47l33.984 33.984c31.969 33.469 89.391 40.828 120.47 5.3438l259.13-293.16c22.219-25.125 22.641-63.141 4.0312-94.5l60.188-60.188c9.75-9.75 9.75-25.594-0.046875-35.297-100.78-96.469-100.59-269.95 0.046875-366.52 100.92-100.97 265.4-100.92 366.52-0.046875 194.29 200.06-14.109 521.21-275.34 425.53-12.797-4.9219-27.328 1.5469-32.25 14.438-16.734 46.266 95.812 51.234 124.13 52.453 272.39 1.2188 412.97-333.94 218.76-527.76zm-503.44 558.79-259.13 293.16c-29.062 24.844-62.297-24.562-81.75-41.578-12.75-13.781-21-32.859-7.5938-47.766l293.16-259.13c28.312-22.688 77.109 30.844 55.359 55.359z"/>
 <path fill="#000000" d="m790.22 534.84c13.734 0 26.156-7.0312 33.281-18.797 38.719-63.984 84.844-149.21 84.844-191.72 0-65.109-52.969-118.08-118.08-118.08s-118.08 52.969-118.08 118.08c0 42.422 46.125 127.69 84.844 191.72 7.0781 11.766 19.547 18.797 33.234 18.797zm0.046875-278.63c37.594 0 68.156 30.562 68.156 68.109 0 21.234-26.438 79.125-68.156 150-41.719-70.922-68.156-128.81-68.156-150 0-37.547 30.562-68.109 68.156-68.109z"/>
 <path fill="#000000" d="m816.52 335.26c-0.5625-34.5-51.938-34.5-52.5 0 0.5625 34.5 51.938 34.5 52.5 0z"/>
 <path fill="#000000" d="m605.81 523.13c0.75 119.72 368.11 119.72 368.86 0 0-16.969-8.625-48.703-66.281-70.688-30.891-11.109-48.234 34.406-17.812 46.688 25.547 9.75 34.125 20.578 34.125 24.047 0 10.312-46.266 40.078-134.48 40.078-88.266 0-134.48-29.766-134.48-40.078 0-3.4219 8.625-14.25 34.219-24.047 30.516-12.281 12.938-57.797-17.859-46.641-57.703 22.078-66.328 53.766-66.328 70.688z"/>
</svg>
